<svg xmlns="http://www.w3.org/2000/svg" xmlns:xlink="http://www.w3.org/1999/xlink" viewBox="0 0 750 1125"><defs><style>.cls-1{fill:#2b534b;}.cls-14,.cls-2,.cls-3,.cls-36{fill:#fff;}.cls-10,.cls-11,.cls-12,.cls-13,.cls-14,.cls-16,.cls-17,.cls-19,.cls-2,.cls-20,.cls-21,.cls-22,.cls-23,.cls-24,.cls-25,.cls-27,.cls-28,.cls-29,.cls-30,.cls-31,.cls-32,.cls-33,.cls-34,.cls-35,.cls-36,.cls-37,.cls-38,.cls-40,.cls-41,.cls-42,.cls-5,.cls-6,.cls-7,.cls-8,.cls-9{stroke:#231815;}.cls-16,.cls-2,.cls-40{stroke-miterlimit:10;}.cls-10,.cls-11,.cls-12,.cls-13,.cls-14,.cls-16,.cls-17,.cls-19,.cls-2,.cls-20,.cls-21,.cls-22,.cls-24,.cls-25,.cls-27,.cls-28,.cls-29,.cls-30,.cls-31,.cls-34,.cls-38,.cls-40,.cls-41,.cls-42,.cls-5,.cls-6,.cls-7,.cls-8,.cls-9{stroke-width:3px;}.cls-4{clip-path:url(#clip-path);}.cls-5{fill:#3d435d;}.cls-10,.cls-11,.cls-12,.cls-13,.cls-14,.cls-17,.cls-19,.cls-20,.cls-21,.cls-22,.cls-23,.cls-24,.cls-25,.cls-27,.cls-28,.cls-29,.cls-30,.cls-31,.cls-32,.cls-33,.cls-34,.cls-35,.cls-36,.cls-37,.cls-38,.cls-41,.cls-42,.cls-5,.cls-6,.cls-7,.cls-8,.cls-9{stroke-linecap:round;stroke-linejoin:round;}.cls-6{fill:#5e7f7e;}.cls-7{fill:#4a6866;}.cls-37,.cls-8{fill:#fdfaf5;}.cls-9{fill:#fbd2b4;}.cls-10{fill:#ce5463;}.cls-11{fill:#fdb73b;}.cls-12,.cls-18{fill:#cb3617;}.cls-13,.cls-16,.cls-33{fill:none;}.cls-15{clip-path:url(#clip-path-2);}.cls-17{fill:#fedac0;}.cls-19{fill:#f8fffd;}.cls-20{fill:#ff9920;}.cls-21{fill:#2c774e;}.cls-22,.cls-23,.cls-39{fill:#262521;}.cls-23,.cls-32,.cls-33,.cls-35,.cls-36,.cls-37{stroke-width:2.94px;}.cls-24{fill:#163240;}.cls-25{fill:#fafefd;}.cls-26{fill:#231815;}.cls-27{fill:#f5ae78;}.cls-28{fill:#db5c39;}.cls-29{fill:#ffcfae;}.cls-30{fill:#bf472c;}.cls-31{fill:#e15c3d;}.cls-32{fill:#fdfffe;}.cls-34{fill:#e0624c;}.cls-35{fill:#3a76aa;}.cls-38{fill:#af4d47;}.cls-40{fill:#c44e30;}.cls-41{fill:#9b3a3a;}.cls-42{fill:#b6504b;}</style><clipPath id="clip-path"><rect class="cls-1" x="77.33" y="95.4" width="598.52" height="930.19" rx="109.07"/></clipPath><clipPath id="clip-path-2"><path class="cls-2" d="M128.8,420.84v31.45s9.47-7.61,13.29-7.54c5.3.09,16,8.3,21.88,8.3,4.52,0,17.43-8.21,23.7-8.21s16.91,8.21,23.07,8.21c6.73,0,19.32-8.21,26.24-8.21,6.16,0,17.24,8.21,23.43,8.21,5.56,0,14.87-8.24,20.39-8.21,5.17,0,13.75,8.21,18.9,8.21,6.57,0,18-8.27,24.41-8.21,7.35.08,18,8.21,23.27,8.21,4.77,0,15.25-8.21,19.77-8.21,4.67,0,16.37,8.21,16.37,8.21V420.84Z"/></clipPath></defs><title>资源 53</title><g id="图层_2" data-name="图层 2"><g id="_3" data-name="3"><rect id="背景" class="cls-3" width="750" height="1125"/><rect class="cls-1" x="77.33" y="95.4" width="598.52" height="930.19" rx="109.07"/><g class="cls-4"><g id="毯子"><path class="cls-5" d="M579.28,987.32s26-28.56,11.34-53.44-35.23-7.58-53.24-4.86-75.91-.73-108.6-11.89-62-12-80.69-21S205,820.63,183.59,821.11s-116.67,2.5-116.67,2.5L77.33,1026H569.56Z"/><path class="cls-5" d="M573.57,920.63s-15.17,9.57-8.1,23.89c11.9-9.16,28.64-2.58,28.64-2.58S589.42,923.84,573.57,920.63Z"/></g><g id="称"><polygon class="cls-6" points="53.03 739.31 104.38 731.26 155.73 759.3 105.54 775.02 53.03 739.31"/><polygon class="cls-7" points="76.17 742.43 107.24 764.16 136.16 756.98 100.61 739.21 76.17 742.43"/><polyline class="cls-6" points="107.24 740.92 107.24 764.16 111.5 763.1 115.77 761.57 115.77 740.03"/><polyline class="cls-6" points="87.42 734.32 87.47 750.34 95.12 755.68 95.12 734.32"/><path class="cls-8" d="M160.39,690.44c-4.16,24.85-27.6,43.88-55.9,43.88s-51.84-19.11-55.92-44"/><ellipse class="cls-8" cx="104.93" cy="689.47" rx="56.11" ry="14.68"/><path class="cls-6" d="M69.92,712.3s7.57-.53,8.33,3.56,3.38,14.26,6.56,15.24,4,5-.49,4.32-9.86-2.59-10.87-5.37S69.92,717.8,69.92,712.3Z"/><path class="cls-6" d="M93.65,717.36s7.58-.53,8.34,3.56,3.58,12.42,6.77,13.4c1.37.42,6.82,0,15.48-3.25.39,6.44-8.09,9.85-14.18,9.85-5.58,0-11.86-3-12.87-5.81S93.65,722.86,93.65,717.36Z"/><polygon class="cls-6" points="105.54 775.02 106.16 872.03 200.02 836.16 155.73 759.3 105.54 775.02"/><polygon class="cls-6" points="53.03 739.31 53.03 824.73 106.16 872.03 105.54 775.02 53.03 739.31"/></g><g id="手"><path class="cls-9" d="M201.79,764.16s26.75.5,36.37-11.12c7.08-7.08,9.36-10.61,6.07-21.72s-11.37-9.35-12.38-3.54-4.8,10.1-9.6,9.6-12.88-2.12-11.62-14.2S222,711.86,222,711.86s7.58-.84,8.34,6.53,12,2.82,11.7-1.47.68-17.94-15.75-22-25,9.85-26,15.41c1.34-3.77-5.81-19.71,8.85-40.68,0,0,8.16-8.33-2.87-11.87s-24.92,24.51-19.62,48.76c-6.82-13.14-6.06-21.22-3.79-28.3s-3.79-8.33-6.06-7.07-10.11.5-9.6,17.94,5.3,23.49,5.3,23.49-9.34,2.53-12.12-11.11-13.62-5.74-11.43,5.58c1.13,5.88,2,14.59,11.43,18.67,11.67,5,8.84,9.85,8.84,9.85a57,57,0,0,1,12.13,5C188,744.35,196.74,749,201.79,764.16Z"/><path class="cls-10" d="M99.66,796.62s-5.49-16.86,10.61-20.08S151,743.38,162,739.59s26-11.75,43.2,29c1.89,11.56,5.35,21.79-8,36.57S157.64,853.84,137,854.41c-14,0-18.57-6.06-18.57-8s4.55-13.07-.57-28.61S109.33,797.38,99.66,796.62Z"/><path class="cls-10" d="M76.55,799.65s15.59,1.48,23.9-3,16.64,12.25,19.11,23a44.11,44.11,0,0,1,.31,19.08s-21.15,11.61-45.22,7.25S76.55,799.65,76.55,799.65Z"/></g><g id="灯"><path class="cls-11" d="M263.92,523.94v.29a19.43,19.43,0,0,1-38.85,0v-.16"/><path class="cls-12" d="M293.06,524a48.57,48.57,0,0,0-97.13,0Z"/><path class="cls-11" d="M158,523.94v.29a19.43,19.43,0,0,1-38.85,0v-.16"/><path class="cls-12" d="M187.09,524A48.57,48.57,0,0,0,90,524Z"/><line class="cls-13" x1="138.53" y1="475.68" x2="138.53" y2="395.79"/><line class="cls-13" x1="244.49" y1="475.68" x2="244.49" y2="447.02"/></g><g id="帐篷"><polygon class="cls-14" points="383.52 420.84 128.8 420.84 61.04 356.23 315.76 356.23 383.52 420.84"/><polyline class="cls-12" points="114.82 356.23 87.55 356.23 155.31 420.84 182.59 420.84 114.82 356.23 182.59 420.84"/><polyline class="cls-12" points="169.37 356.23 142.09 356.23 209.86 420.84 237.13 420.84 169.37 356.23 237.13 420.84"/><polyline class="cls-12" points="224.06 356.23 196.79 356.23 264.56 420.84 291.83 420.84 224.06 356.23 291.83 420.84"/><polyline class="cls-12" points="278.71 356.23 251.44 356.23 319.21 420.84 346.48 420.84 278.71 356.23 346.48 420.84"/><polygon class="cls-12" points="305.72 356.23 373.49 420.84 382.88 420.84 315.76 356.23 305.72 356.23"/><path class="cls-3" d="M128.8,420.84v31.45s9.47-7.61,13.29-7.54c5.3.09,16,8.3,21.88,8.3,4.52,0,17.43-8.21,23.7-8.21s16.91,8.21,23.07,8.21c6.73,0,19.32-8.21,26.24-8.21,6.16,0,17.24,8.21,23.43,8.21,5.56,0,14.87-8.24,20.39-8.21,5.17,0,13.75,8.21,18.9,8.21,6.57,0,18-8.27,24.41-8.21,7.35.08,18,8.21,23.27,8.21,4.77,0,15.25-8.21,19.77-8.21,4.67,0,16.37,8.21,16.37,8.21V420.84Z"/><g class="cls-15"><rect class="cls-12" x="155.12" y="420.65" width="26.92" height="35.09"/><rect class="cls-12" x="208.82" y="420.65" width="26.92" height="35.09"/><rect class="cls-12" x="263.62" y="420.65" width="26.92" height="35.09"/><rect class="cls-12" x="318.62" y="420.65" width="26.92" height="35.09"/></g><path class="cls-16" d="M128.8,420.84v31.45s9.47-7.61,13.29-7.54c5.3.09,16,8.3,21.88,8.3,4.52,0,17.43-8.21,23.7-8.21s16.91,8.21,23.07,8.21c6.73,0,19.32-8.21,26.24-8.21,6.16,0,17.24,8.21,23.43,8.21,5.56,0,14.87-8.24,20.39-8.21,5.17,0,13.75,8.21,18.9,8.21,6.57,0,18-8.27,24.41-8.21,7.35.08,18,8.21,23.27,8.21,4.77,0,15.25-8.21,19.77-8.21,4.67,0,16.37,8.21,16.37,8.21V420.84Z"/></g><g id="士多"><rect class="cls-14" x="76.77" y="265.47" width="26.78" height="9.95"/><rect class="cls-14" x="76.77" y="331.43" width="26.78" height="9.95"/><rect class="cls-17" x="103.55" y="256.65" width="64.67" height="95.33"/><rect class="cls-17" x="208.33" y="256.65" width="64.67" height="95.33"/><rect class="cls-17" x="314.21" y="256.65" width="64.67" height="95.33"/><rect class="cls-12" x="103.55" y="245.09" width="274.69" height="10.48"/><rect class="cls-12" x="103.55" y="352.39" width="275.33" height="10.48"/><rect class="cls-12" x="168.23" y="280.6" width="40.11" height="6.06"/><rect class="cls-12" x="273.01" y="281.05" width="40.11" height="6.06"/><rect class="cls-12" x="273.01" y="314.47" width="40.11" height="6.06"/><rect class="cls-12" x="168.23" y="314.73" width="40.11" height="6.06"/><path class="cls-18" d="M141.35,304.84q1.85-.13,5-.48l5.13-.54c1.73-.16,3-.29,3.74-.4s1.55-.22,2.36-.35a11.78,11.78,0,0,1,1.79-.21,5.93,5.93,0,0,1,1.34.29c.54.17,1.12.39,1.74.65a13.7,13.7,0,0,1,1.85,1,5.51,5.51,0,0,1,1.48,1.34q.57.75.33,1.23a.85.85,0,0,1-.82.48h-4l-4.62-.07c-2.8-.05-5-.06-6.52,0s-3.34.14-5.71.28-4,.24-5,.3l-2.39.18L136.7,327l2.18-.21,3.52-.27c.67-.07,1.67-.21,3-.41s2.38-.38,3.06-.53a8,8,0,0,1,1.54-.23,5.51,5.51,0,0,1,1.23.28q.72.24,2.22.9a6.57,6.57,0,0,1,2.14,1.37c.42.47.56.87.42,1.21s-.46.52-1,.52l-3.35.07-3.11.1h-4.85c-1.3,0-2.74.08-4.31.17s-3.52.23-5.84.41-4,.34-4.89.46-1.93.28-3,.46-1.94.36-2.65.53-1.15.28-1.33.31a2.24,2.24,0,0,1-.58,0,7,7,0,0,1-1.71-.31,15,15,0,0,1-2-.72,4.27,4.27,0,0,1-1.4-.94,1.1,1.1,0,0,1-.42-.92c.06-.26.3-.41.71-.43l2.32-.1c1.25,0,2.12-.09,2.61-.14s1.8-.19,3.92-.44l4.13-.41,3.18-.38,0-18.49c-1.71.23-3.27.44-4.67.65s-3.06.48-5,.82l-4.48.85a22.23,22.23,0,0,0-3.89,1,5.77,5.77,0,0,1-1.61.51,4.1,4.1,0,0,1-1.9-.46,15,15,0,0,1-2.29-1.21,6.53,6.53,0,0,1-1.52-1.3q-.48-.62-.36-1c.08-.23.42-.37,1-.44l3.79-.31,2.6-.21c1.3-.09,2.66-.23,4.07-.44l5.54-.79c1.32-.15,3.1-.37,5.33-.65l3.31-.37,0-13.88c0-1.43,0-2.53,0-3.3s-.06-1.5-.14-2.22a6.58,6.58,0,0,0-.41-1.79,6.68,6.68,0,0,0-.73-1.37,8.45,8.45,0,0,1-.62-1,.86.86,0,0,1,0-.68,1.11,1.11,0,0,1,.55-.57,2.73,2.73,0,0,1,1.25-.23,10.28,10.28,0,0,1,2.6.41,13.28,13.28,0,0,1,2.37.92A7.67,7.67,0,0,1,139,283a1.8,1.8,0,0,1,.67.94,1.48,1.48,0,0,1-.07.65,3.94,3.94,0,0,0-.34.55,6,6,0,0,0-.57,1.28c-.17.51-.33,1-.49,1.52a6.76,6.76,0,0,0-.31,1.37c-.05.41-.12,1.46-.21,3.17l-.17,2.36L137,305.15Z"/><path class="cls-18" d="M237.87,324a8.93,8.93,0,0,1-1.38-1.59c-.58-.78-1-1.43-1.35-1.93L233.63,318l-.95-1.5-2,1q-1.08.51-2.49,1c-.95.34-1.65.58-2.11.72l-1.33.41c-.27.09-.44.07-.49-.07s0-.3.29-.48l.78-.51,1.92-1.13a37.71,37.71,0,0,0,3.45-2.44q2.09-1.62,4.05-3.32a45.49,45.49,0,0,0,3.5-3.33c1-1.09,1.92-2.13,2.69-3.11a10.28,10.28,0,0,0,1.38-2.1,11.68,11.68,0,0,0,.44-1.46,7.12,7.12,0,0,0,.23-1.43,1.67,1.67,0,0,1,.15-.81.81.81,0,0,1,.55-.25,3,3,0,0,1,1.5.48l.86.44a7.58,7.58,0,0,1,1.35,1.1,5,5,0,0,1,.9,1.19,1.67,1.67,0,0,1,.24.79c0,.2-.36.47-1,.8a6.49,6.49,0,0,0-1.53,1.18l-1.61,1.64,4.68-1.06a20.52,20.52,0,0,0,2.74-.75l2.35-1a6.17,6.17,0,0,1,1.92-.27,5.52,5.52,0,0,1,2.17.73,19.38,19.38,0,0,1,2.2,1.49,6.59,6.59,0,0,1,1.44,1.4,1.82,1.82,0,0,1,.34.89c0,.37-.52.84-1.43,1.44a20.85,20.85,0,0,0-2.35,1.72,45.16,45.16,0,0,0-3.43,3.63q-2.46,2.77-4,4.52T246.59,324a53.6,53.6,0,0,1-6,4.82q-3.09,2.16-6.68,4.17a55.81,55.81,0,0,1-6.2,3.08c-1.74.7-3.68,1.39-5.8,2.05a36.24,36.24,0,0,1-4.27,1.16l-.95.17a.67.67,0,0,1-.65-.22c-.19-.19,0-.4.44-.63l.65-.28c.73-.29,2-.88,3.93-1.76s3.68-1.77,5.37-2.68,3.68-2.12,6-3.64,4-2.74,5.19-3.67l2-1.61A8,8,0,0,1,237.87,324Zm-2.71-26a5.51,5.51,0,0,1-1-1.06,15.07,15.07,0,0,1-1-1.35c-.21-.36-.72-1.26-1.52-2.72l-.78-1.44c-1.62.85-2.73,1.39-3.34,1.63s-1.22.46-1.86.66l-.89.31c-.43.16-.7.15-.8,0s0-.39.43-.62l.68-.41c.27-.16,1-.63,2.07-1.42a42.73,42.73,0,0,0,3.93-3.26,42,42,0,0,0,4.29-4.6,25,25,0,0,0,2.49-3.47c.32-.63.58-1.21.79-1.72a5.34,5.34,0,0,0,.37-1.42,2,2,0,0,1,.26-.89,1.07,1.07,0,0,1,.7-.31,2.66,2.66,0,0,1,.87.21,5.16,5.16,0,0,1,1.13.56,11.51,11.51,0,0,1,1.23.92,6.32,6.32,0,0,1,1.1,1.18,1.36,1.36,0,0,1,.35.93,1,1,0,0,1-.3.46,11.84,11.84,0,0,1-1.06.77A5.94,5.94,0,0,0,242,282l-1.16,1.34,3.52-.86a17.8,17.8,0,0,0,2.13-.68,20.47,20.47,0,0,0,2.52-1.11,4.68,4.68,0,0,1,1.64-.63,5.06,5.06,0,0,1,1.64.44,17.41,17.41,0,0,1,1.79.84,5.49,5.49,0,0,1,1.16.82,3.19,3.19,0,0,1,.69.84,1.19,1.19,0,0,1,.12.82c-.07.22-.37.5-.91.82a7.53,7.53,0,0,0-1.5,1.16l-1.59,1.55c-.6.59-1.75,1.8-3.46,3.66s-3,3.27-4,4.22-2.45,2.23-4.37,3.81-3.49,2.8-4.7,3.63a45.56,45.56,0,0,1-4.63,2.71,47.34,47.34,0,0,1-4.75,2.21c-1.29.49-2.21.8-2.75.94l-1.3.37a.29.29,0,0,1-.41-.18c-.09-.2,0-.38.3-.57l1-.58,2.8-1.74c1.35-.84,2.89-1.85,4.64-3a33.81,33.81,0,0,0,3.77-2.82l1.81-1.6A4.6,4.6,0,0,1,235.16,298Zm-.84-6.53a9.55,9.55,0,0,1,1.69.9,3.46,3.46,0,0,1,1.16,1.17,5.3,5.3,0,0,1,.5,1.41c.11.55.17.87.17,1l0,1c.51-.5,1-1,1.35-1.36s1.46-1.55,3.17-3.42,2.82-3.15,3.35-3.83l1.57-2.09a1.42,1.42,0,0,0,.39-.88.59.59,0,0,0-.29-.53,5.41,5.41,0,0,0-2.17.25,37.15,37.15,0,0,1-3.67.63,6.18,6.18,0,0,1-2.19.06l-.51-.17c-.78.66-1.64,1.37-2.59,2.13s-1.84,1.44-2.68,2l-1.33.95C233,291,233.75,291.25,234.32,291.48Zm3.09,25.17a7.61,7.61,0,0,1,2.05,1.16,4.7,4.7,0,0,1,1.18,1.37,7.35,7.35,0,0,1,.63,2,11.71,11.71,0,0,1,.26,1.6v.72q.69-.59,1.23-1.08c.36-.33,1.24-1.21,2.62-2.64s2.4-2.57,3.09-3.39l3.38-4.17a5.89,5.89,0,0,0,1.54-2.46,1.64,1.64,0,0,0-.09-1.25c-.17-.21-.59-.24-1.26-.06s-2,.38-4,.63l-3.11.44-2.67-.14c-1,.85-2.12,1.74-3.28,2.67s-2.35,1.82-3.55,2.67l-1.23.85C235.51,316,236.58,316.32,237.41,316.65Z"/><path class="cls-18" d="M331.33,292a2.05,2.05,0,0,1-.64-.42.45.45,0,0,1-.12-.43.49.49,0,0,1,.29-.34,8,8,0,0,1,1.7-.29l6.6-.72,11.59-1.47q-1.06-1.23-1.86-2.31a20.61,20.61,0,0,1-1.76-2.92l-.52-1a2.27,2.27,0,0,1-.39-1,.76.76,0,0,1,.12-.55.72.72,0,0,1,.44-.17,3.24,3.24,0,0,1,.93.1l1.36.34a14.1,14.1,0,0,1,2.07.82,11.19,11.19,0,0,1,1.92,1.13,4.31,4.31,0,0,1,1.12,1.35,3.58,3.58,0,0,1,.09,3l-.41.85,10.63-1.78a4.48,4.48,0,0,1,1.25.06,5.08,5.08,0,0,1,1.36.46,18.76,18.76,0,0,1,1.66.94,5.47,5.47,0,0,1,1.33,1.07,2.12,2.12,0,0,1,.4.62.39.39,0,0,1-.05.24.92.92,0,0,1-.45.32,3.34,3.34,0,0,1-.92.16l-2.94.2-8.58.41q-3.42.21-9.42.89c-4,.46-6.48.75-7.46.89l-2.53.38a1.49,1.49,0,0,1,.36.54,1.46,1.46,0,0,1-.12.55c-.16.39-.3.75-.4,1.08a7.28,7.28,0,0,0-.25,1.21l-.89,7.45c-.21,1.35-.58,3.17-1.13,5.47s-1.08,4.3-1.61,6a42.81,42.81,0,0,1-1.89,5,37.66,37.66,0,0,1-2.26,4.3,38.38,38.38,0,0,1-2.77,3.86,35.61,35.61,0,0,1-3.4,3.7,19.65,19.65,0,0,1-3.62,2.73l-1.54.89c-.41.23-.66.19-.75-.1s.07-.64.48-1l1.16-1a24.54,24.54,0,0,0,3.07-3.69q2-2.74,3.06-4.39a43.89,43.89,0,0,0,2.48-4.53,48.74,48.74,0,0,0,2.74-7.32,51.19,51.19,0,0,0,1.77-7.79q.45-3.35.67-6.15c.15-1.87.23-2.95.24-3.25a9.81,9.81,0,0,0-.15-1.54,7.09,7.09,0,0,0-.35-1.3l-.48-.89Q331.81,292.27,331.33,292Zm31.07,11.88c2.05-.43,3.29-.65,3.7-.67a4.4,4.4,0,0,1,1.64.41,3.64,3.64,0,0,1,1.35.84,1.38,1.38,0,0,1,.34.68.61.61,0,0,1-.17.47,3.14,3.14,0,0,1-.91.46,7.7,7.7,0,0,1-1.2.37l-1.77.41a37.32,37.32,0,0,1-6.67,1c-2,.1-3.13.14-3.31.12l-1.61-.14-.48,9.95,10.22-2a6,6,0,0,1,.87,0,8.35,8.35,0,0,1,2.57,1.13,6.94,6.94,0,0,1,2.32,1.76,2.44,2.44,0,0,1,.39.91,1.66,1.66,0,0,1-.13.44l-1.23,1.51a11.31,11.31,0,0,0-1,2c-.41,1-.66,1.65-.75,2l-1.78,5.36a2.8,2.8,0,0,1,.44.35,2.7,2.7,0,0,1,.28.32l.27.39a.5.5,0,0,1,.05.4.51.51,0,0,1-.29.34,4.39,4.39,0,0,1-1.33.15l-1.23.07-8,.68-10.7.82q-.1.58-.21,1a2,2,0,0,1-.27.63,1.43,1.43,0,0,1-.29.35.63.63,0,0,1-.27.1.69.69,0,0,1-.43-.22,2.56,2.56,0,0,1-.87-1.06,8.43,8.43,0,0,1-.5-1.56c-.14-.6-.35-2.34-.65-5.21s-.51-4.65-.65-5.35a11.22,11.22,0,0,0-.37-1.52,3.89,3.89,0,0,0-.38-.79l-1.16-1.47a.9.9,0,0,1-.12-.68.63.63,0,0,1,.32-.39,1,1,0,0,1,.69,0l3.28.85,7.31-.75-.17-13.36c0-2.74-.09-4.35-.15-4.84s-.14-1.07-.26-1.74a6.83,6.83,0,0,0-.31-1.35l-.3-.69c-.16-.45-.16-.76,0-.92a1.33,1.33,0,0,1,.7-.31,7.82,7.82,0,0,1,1.7.19,14.53,14.53,0,0,1,1.71.41,6.9,6.9,0,0,1,1.07.51,2.58,2.58,0,0,1,.72.55,1.12,1.12,0,0,1,.21.5,3.59,3.59,0,0,1-.3,1.18,7,7,0,0,0-.35,2.13l-.18,5.3Zm-8.81,26.73,7.48-1.2,1.3-6.59a10.55,10.55,0,0,0,.22-2.07,4.66,4.66,0,0,0-.08-1,1.72,1.72,0,0,0-.33-.48c-.17-.2-.74-.27-1.72-.22l-3.63.23-7.62,1-5.71.69.79,10.52C349.35,331.14,352.45,330.85,353.59,330.65Z"/></g><g id="海鲜"><rect class="cls-12" x="96.98" y="116.31" width="213.73" height="115.5"/><rect class="cls-14" x="127.3" y="93.09" width="6.06" height="23.22"/><rect class="cls-14" x="266.94" y="93.09" width="6.06" height="23.22"/><rect class="cls-17" x="103.55" y="122.9" width="199.58" height="101.08"/><path class="cls-18" d="M120.12,158c-.17-.31-.33-.64-.49-1s-.43-1.09-.82-2.23a16.08,16.08,0,0,1-.68-2.32l-.23-1.22c-.43,0-.78,0-1.06,0a5.24,5.24,0,0,1-.94-.13,1.93,1.93,0,0,1-.92-.44c-.26-.23-.36-.44-.31-.65s.29-.34.74-.39l.85-.07,2.55-.25a23.53,23.53,0,0,0,2.36-.3l2.68-.57a15.8,15.8,0,0,1-1.19-1.6,27.17,27.17,0,0,1-1.49-3.26l-.2-.47a.44.44,0,0,1,0-.57.53.53,0,0,1,.57-.13l.77.23a7.56,7.56,0,0,1,2.1.94,3.49,3.49,0,0,1,1.19,1.17,3,3,0,0,1,.32,1.4,3.23,3.23,0,0,1-.1.84l-.4,1.17,1.91-.51,1.42-.42a5.4,5.4,0,0,1,1-.24,3.24,3.24,0,0,1,1.06.28,4.58,4.58,0,0,1,1.05.53c.24.18.36.34.36.49a.6.6,0,0,1-.13.42,1.43,1.43,0,0,1-.75.35l-2.56.7a9.9,9.9,0,0,0,1.08.74c.36.22.55.41.57.58a.48.48,0,0,1-.05.37,3.45,3.45,0,0,1-.32.36,7.67,7.67,0,0,0-.86,1.43l-2.44,4.68c.68-.19,1.21-.35,1.58-.47a7.25,7.25,0,0,1,.86-.22,2.94,2.94,0,0,1,1.24.18,6.62,6.62,0,0,1,1.11.49c.29.17.45.31.48.44a.56.56,0,0,1-.07.37.54.54,0,0,1-.35.26l-.77.27a7.87,7.87,0,0,1-1.18.35c-.39.09-1.08.2-2,.35l-2,.35-1.2.2a10.31,10.31,0,0,1,.95.7,1.22,1.22,0,0,1,.4.51,1.48,1.48,0,0,1-.09.66,2.81,2.81,0,0,0-.14.79l0,1,5-.75a6.42,6.42,0,0,1,1.55,0,3.28,3.28,0,0,1,1.16.35,2.72,2.72,0,0,1,.79.62c.19.24.26.4.2.49a.66.66,0,0,1-.22.22,1.17,1.17,0,0,1-.51.12l-.75.05c-.35,0-1.15.11-2.39.25l-2.32.24-2.56.35-.15,11.06a12.23,12.23,0,0,1-.1,1.44c-.05.3-.14.69-.26,1.17a3.77,3.77,0,0,1-.43,1.09.8.8,0,0,1-.47.41c-.16,0-.36-.1-.61-.4a3.55,3.55,0,0,1-.55-.86,6.8,6.8,0,0,1-.43-1.07,2.42,2.42,0,0,1-.11-.86,8.34,8.34,0,0,1,.25-1.46,21.24,21.24,0,0,0,.38-2.62c.09-1,.15-1.89.16-2.62l.08-5-4.06.81c-1.66.32-2.91.59-3.74.79a7.21,7.21,0,0,1-1.91.29,3.06,3.06,0,0,1-1-.14c-.26-.09-.66-.27-1.21-.53s-.84-.5-.88-.69a.58.58,0,0,1,0-.42c0-.09.21-.16.47-.21l1.07-.15L113,166c.67-.05,1.75-.19,3.23-.42l4-.55,2.92-.5a16.16,16.16,0,0,0-.08-1.76,5.52,5.52,0,0,0-.2-1.08l-.34-1c-.77.12-1.45.21-2.06.29s-1.13.12-1.57.14-.82,0-1.16,0a4.84,4.84,0,0,1-1.5-.19,2,2,0,0,1-.85-.51c-.21-.22-.29-.39-.24-.52a.37.37,0,0,1,.3-.25l1.12-.15,1.75-.2,2.46-.3C120.49,158.62,120.29,158.27,120.12,158Zm-7.27,18c.23-.23.52-.54.86-.92s.7-.84,1.09-1.36A17.73,17.73,0,0,0,116,172a7.43,7.43,0,0,0,.67-1.34,4.41,4.41,0,0,0,.15-.74c0-.26.06-.46.09-.61a.67.67,0,0,1,.17-.37q.15-.15.66,0a4.08,4.08,0,0,1,1,.5l.82.55a2.87,2.87,0,0,1,.53.51.58.58,0,0,1,.16.51.91.91,0,0,1-.27.35l-.32.27a9.33,9.33,0,0,0-.76.95c-.36.48-.7.89-1,1.23s-.89.87-1.72,1.59a7.55,7.55,0,0,1-2.42,1.51l-.67.25c-.48.18-.76.18-.83,0a.53.53,0,0,1,.19-.59Zm7.32-23.63a4.73,4.73,0,0,1,1.46,1.91,5.87,5.87,0,0,1,.43,3.07l-.12,1.37,3.71-.7,1.12-5.31a5.65,5.65,0,0,0,.1-1.61l-.1-1c-2.08.39-3.3.61-3.66.64l-4.56.58C119.06,151.62,119.6,152,120.17,152.38ZM127,168.79a.29.29,0,0,1,0-.36.34.34,0,0,1,.42-.12l.82.28c.6.21,1.12.42,1.57.61a4.75,4.75,0,0,1,1.29.84,4.14,4.14,0,0,1,.86,1,2.41,2.41,0,0,1,.24,1.16,2,2,0,0,1-.4,1.16.88.88,0,0,1-.8.43c-.23,0-.53-.23-.91-.71s-.84-1.13-1.39-2-.94-1.41-1.16-1.69Zm14.33-10.11c.71-.17,1.69-.43,2.95-.79s2.43-.69,3.5-1l2.1-.63a5.14,5.14,0,0,1,.83-.2,3.68,3.68,0,0,1,1.13.07,5.8,5.8,0,0,1,1.2.39,3.71,3.71,0,0,1,1,.6c.27.22.4.42.39.61s-.16.29-.44.32l-1.32.2c-.51.08-1.28.19-2.31.32l-1.85.25-1.52.3c.37.23.66.41.88.52a2,2,0,0,1,.47.34.62.62,0,0,1,.16.4,1.05,1.05,0,0,1-.14.53l-.42.7a3.58,3.58,0,0,0-.2,1.29l-.22,3.34-.45,12.08c0,.78-.11,1.6-.23,2.47s-.24,1.62-.38,2.29a5.87,5.87,0,0,1-.51,1.54c-.2.36-.38.54-.55.52s-.34-.12-.54-.37a2.69,2.69,0,0,1-.28-1.49l-.15-2.45.07-2.34.1-13.62a27.29,27.29,0,0,0-.1-2.91l-.27-2.22-2.34.59a6.94,6.94,0,0,1-1.45.25,2.13,2.13,0,0,1-.72-.07l-.92-.22c-.11.95-.22,1.79-.32,2.52s-.35,2-.74,3.69a21.62,21.62,0,0,1-1.25,4.06,24.69,24.69,0,0,1-2,3.36,15.91,15.91,0,0,1-2.1,2.66l-.83.74c-.28.25-.47.31-.58.17a.47.47,0,0,1,0-.56l.54-1c.47-.86.95-1.81,1.46-2.85a25.11,25.11,0,0,0,1.33-3.31,27.21,27.21,0,0,0,1-3.88c.25-1.41.47-2.86.66-4.37s.32-2.91.39-4.23a26,26,0,0,0-.08-3.77A7.21,7.21,0,0,0,136,152a4.9,4.9,0,0,0-.41-.91,1.89,1.89,0,0,1-.26-.77.63.63,0,0,1,.24-.54,1.23,1.23,0,0,1,.87-.16,4.34,4.34,0,0,1,1.52.43l.62.34c.9-.59,1.61-1.09,2.14-1.48a20.32,20.32,0,0,0,1.63-1.33c.56-.5,1.09-1,1.6-1.52a9.65,9.65,0,0,0,1-1.09,6.22,6.22,0,0,0,.45-.9c.16-.38.3-.61.43-.67a.94.94,0,0,1,.63,0,4,4,0,0,1,.81.36,7.34,7.34,0,0,1,.95.68,8.57,8.57,0,0,1,.9.82,2.51,2.51,0,0,1,.49.76,1,1,0,0,1,.08.56.52.52,0,0,1-.26.3,3.87,3.87,0,0,1-.53.18,5.17,5.17,0,0,0-.85.3l-1.39.62c-.52.25-1.4.7-2.63,1.36s-2,1.07-2.43,1.25l-2,1q0,.33,0,.48l-.27,1.42s-.06.69-.13,2l-.22,3.68C139.87,159,140.67,158.84,141.37,158.68Z"/><path class="cls-18" d="M161.81,171.18a6.49,6.49,0,0,1,.28,1,7,7,0,0,1,.17,1.37,6.37,6.37,0,0,1-.17,1.6,9.16,9.16,0,0,1-1.53,3.35c-.33.42-.63.63-.91.64a1,1,0,0,1-.8-.43,1.9,1.9,0,0,1-.44-1,7,7,0,0,1-.11-1.14,1.8,1.8,0,0,1,.13-.78,2.24,2.24,0,0,1,.28-.42,8.44,8.44,0,0,0,.68-1.19c.27-.55.53-1.06.78-1.52a4.69,4.69,0,0,0,.47-1.05l.18-.73c.05-.25.17-.38.37-.41s.36.09.47.34Zm9.64-23.36,1.5-.45a7,7,0,0,0,1.32-.47l.89-.5a2.7,2.7,0,0,1,.55-.2,2.64,2.64,0,0,1,1,.21,10.27,10.27,0,0,1,1.24.53,3.36,3.36,0,0,1,1,.72c.28.29.4.52.37.68a1,1,0,0,1-.43.5l-1,.75c-.36.28-.74.61-1.13,1a18,18,0,0,0-1.23,1.31l-3.54,4,1.94-.5a11.42,11.42,0,0,0,1.55-.46,3.42,3.42,0,0,1,.67-.23,2.56,2.56,0,0,1,.91.15,9.31,9.31,0,0,1,1.47.61,7.68,7.68,0,0,1,1.44.88c.37.3.54.57.51.82a1.47,1.47,0,0,1-.22.45c-.14.2-.29.43-.46.7a3.84,3.84,0,0,0-.36.61,7.89,7.89,0,0,0-.33.93L177.1,166a5.39,5.39,0,0,1-.73,1.54,1.12,1.12,0,0,1-1.06.53.81.81,0,0,1-.77-.5l-.3-.55-8.19,1-.38,1a.62.62,0,0,1-.49.4c-.25,0-.5-.12-.74-.5a2.79,2.79,0,0,1-.43-1.12l-.93-6.57a9.26,9.26,0,0,0-.25-1c-.13-.47-.24-.84-.34-1.1a3.42,3.42,0,0,0-.6-.94,6.83,6.83,0,0,1-.55-.72.4.4,0,0,1-.06-.32c0-.1.11-.17.26-.24a1.32,1.32,0,0,1,.6-.08l1.17.23.84.2,3-.41a11.78,11.78,0,0,0,1.19-.19l1.45-.27,3.06-5.08a11.64,11.64,0,0,0,.66-1.21q.25-.57.15-.72c-.08-.11-.43-.1-1.06,0a12.47,12.47,0,0,1-1.24.23,2.91,2.91,0,0,1-1.27-.05l-.88-.33-.89,1c-.27.28-.82.78-1.66,1.51s-1.47,1.25-1.9,1.55a12.65,12.65,0,0,1-1.5.89l-.74.4c-.32.19-.53.21-.64.09s-.05-.3.19-.54l.7-.72.94-.94q.56-.59,1.47-1.68c.61-.74,1.11-1.38,1.48-1.91s.77-1.15,1.19-1.87.73-1.31.95-1.8a8.31,8.31,0,0,0,.48-1.22,9.19,9.19,0,0,0,.23-1.1,8.25,8.25,0,0,0,.12-.94.77.77,0,0,1,.11-.47.58.58,0,0,1,.32-.19,1.39,1.39,0,0,1,.74.14,6.29,6.29,0,0,1,1,.54,8.48,8.48,0,0,1,.92.69,3.5,3.5,0,0,1,.63.67.74.74,0,0,1,.15.62,1.37,1.37,0,0,1-.48.56,9.26,9.26,0,0,0-1.22,1.36c-.53.66-.79,1-.79,1l-1,1.39Zm-6,23.61.72.32a4.33,4.33,0,0,1,1,.76,2.86,2.86,0,0,1,.6.83,3,3,0,0,1,.18.94,5.59,5.59,0,0,1,0,.88,1.34,1.34,0,0,1-.36.69.72.72,0,0,1-.54.21,1.11,1.11,0,0,1-.72-.44,4.12,4.12,0,0,1-.72-1.25l-.5-1.23a8.14,8.14,0,0,1-.45-1l-.17-.57a.4.4,0,0,1,0-.35c.07-.11.24-.11.53,0Zm1.42-13.25-1.74.22.32,3.44,1.87-.25,1.69-.22c0-.39,0-.7-.06-1a8.24,8.24,0,0,0-.2-1,4.39,4.39,0,0,0-.34-1l-.25-.42C167.42,158.11,167,158.18,166.87,158.18ZM169,163l-1.78.16a5.1,5.1,0,0,1-1,0l-.57-.05.35,3.34,3-.53Zm1.27,7.42a11.67,11.67,0,0,1,1.24.64,2.36,2.36,0,0,1,1,1,2.76,2.76,0,0,1,.22,1.16,2.58,2.58,0,0,1-.28,1.22.94.94,0,0,1-.57.49.86.86,0,0,1-.72-.32,3.09,3.09,0,0,1-.75-1.09l-.77-1.47a6.41,6.41,0,0,1-.43-1l-.17-.5a.45.45,0,0,1,0-.36c.05-.1.19-.12.42,0Zm.87-12.48a1.31,1.31,0,0,1,.53.34.68.68,0,0,1,.16.48,2.88,2.88,0,0,1-.18.62,3.41,3.41,0,0,0-.19.7l-.12.82,1.62-.35a5.67,5.67,0,0,1,1.19-.1,2.23,2.23,0,0,1,1,.28l.57.32.25-1.22.25-1.69a1.68,1.68,0,0,0,0-1,.88.88,0,0,0-.59-.37,4,4,0,0,0-.89.1l-1.37.23-3,.5C170.6,157.76,170.88,157.88,171.13,158Zm3.31,4.21-1.62.27-1.54.2-.25,3,1.29-.27a5,5,0,0,1,1-.14,3.55,3.55,0,0,1,.79.06l.74.15.7-3.41Zm.72,7.17a11.49,11.49,0,0,1,1.26.6,10.63,10.63,0,0,1,1.32.77,2.74,2.74,0,0,1,.68.72,2.81,2.81,0,0,1,.4,1.07,3.19,3.19,0,0,1,0,1.4,1.84,1.84,0,0,1-.36.76.84.84,0,0,1-.73.31,1.16,1.16,0,0,1-.87-.49,13.79,13.79,0,0,1-1.15-1.57c-.48-.72-.78-1.18-.9-1.37s-.3-.53-.57-1l-.5-.9a.55.55,0,0,1-.1-.51c.07-.12.29-.13.65,0ZM185.73,162a10.64,10.64,0,0,1-1.23.11,5.16,5.16,0,0,1-1.44-.15,1.73,1.73,0,0,1-1.05-.6c-.2-.28-.27-.46-.22-.53s.22-.14.52-.19l1.52-.2c.65-.08,1.29-.18,1.94-.3l2.14-.37c0-.43,0-.79,0-1.06s0-.68-.09-1.21-.09-.89-.12-1.07l-.28-1.17c-.54.07-1.12.13-1.71.19s-1.1.08-1.5.08a10,10,0,0,1-1.74-.1,2.45,2.45,0,0,1-1.42-.52c-.28-.26-.38-.46-.3-.58s.3-.22.65-.27l1.67-.19c.49-.05,1.34-.18,2.52-.38s2.12-.37,2.78-.52l3.24-.72c1.26-.25,2.18-.47,2.76-.65a6.72,6.72,0,0,1,1.25-.3,3.85,3.85,0,0,1,1.13.21,4.65,4.65,0,0,1,1.26.63c.4.27.57.5.51.68s-.25.32-.56.42l-1.37.43a18.94,18.94,0,0,1-2,.39l-2.29.43-2.07.35,1,.56q.48.28.54.54a1.79,1.79,0,0,1-.22.88,4.25,4.25,0,0,0-.31,1.05l-.22,1.25,1.39-.27a13.36,13.36,0,0,0,1.39-.33,5.19,5.19,0,0,1,1-.22,9.5,9.5,0,0,1,1.22.18,4.62,4.62,0,0,1,1.46.5c.32.21.47.39.43.53s-.16.26-.4.37a7,7,0,0,1-1.49.36l-5.05.9,0,4.3,2.34-.29,2.21-.28,2.24-.35c.77-.1,1.31-.18,1.65-.25a4.6,4.6,0,0,1,.74-.09,3.92,3.92,0,0,1,1,.24,10.46,10.46,0,0,1,1.36.61,4.61,4.61,0,0,1,1.09.75q.36.36.36.54a.51.51,0,0,1-.26.35,1.68,1.68,0,0,1-.79.14l-1.72.08-1.86.05-2.64.15-3.14.15-2.66.2-.33,8.59-.1,3.21c-.06.78-.18,1.69-.35,2.72s-.33,1.93-.49,2.71a5.84,5.84,0,0,1-.55,1.66q-.3.48-.48.51c-.11,0-.25-.15-.42-.5a4.21,4.21,0,0,1-.3-1.94l-.12-2.44c0-.44,0-1.43,0-3l0-3.09.15-8.14-1.57.19-2.23.33c-.88.13-1.63.28-2.24.43a4.94,4.94,0,0,1-1.25.22,1.77,1.77,0,0,1-.73-.13c-.2-.08-.54-.25-1-.5a3.12,3.12,0,0,1-1-.68c-.16-.21-.22-.37-.17-.47s.3-.19.77-.24l1.59-.15,3.61-.42,4.29-.48.07-4.16ZM182,144.46c-.13-.25-.14-.44,0-.56s.36-.14.73,0l1,.32a12.16,12.16,0,0,1,1.27.54,9.26,9.26,0,0,1,1.31.75,2.38,2.38,0,0,1,.82.89,3,3,0,0,1,.26,1.38,4.23,4.23,0,0,1-.21,1.31,1.72,1.72,0,0,1-.53.84,1,1,0,0,1-.78.2,1.43,1.43,0,0,1-.84-.48,8.38,8.38,0,0,1-1-1.33c-.39-.61-.68-1.12-.9-1.53l-.67-1.32Zm7.55,7.27q-.63.42-.78.21c-.1-.14,0-.39.3-.76l.9-1.09c.6-.73,1.14-1.44,1.64-2.11a14,14,0,0,0,1.23-1.93,17.62,17.62,0,0,0,.8-1.68A4.87,4.87,0,0,0,194,143a1.37,1.37,0,0,1,.22-.73c.1-.09.32-.11.67-.06a6.25,6.25,0,0,1,1.59.6,7,7,0,0,1,1.53,1c.36.31.5.56.42.76a1,1,0,0,1-.35.32l-.9.55a12.05,12.05,0,0,0-1,.92l-1.32,1.17-2.26,2.07a16.69,16.69,0,0,1-1.74,1.32Z"/><path class="cls-18" d="M208.84,157.68c-.24-.26-.29-.48-.18-.66a.47.47,0,0,1,.53-.19l1.34.3c.55.14,1.23.33,2.05.6a5,5,0,0,1,1.69.81,3.75,3.75,0,0,1,.79,1.13,2.12,2.12,0,0,1,.21,1.42,1.78,1.78,0,0,1-.53,1,1.22,1.22,0,0,1-1,.26,2.08,2.08,0,0,1-1.14-.55q-.56-.5-1.53-1.53c-.64-.69-1-1.15-1.22-1.38Zm8.24,6.65c.15-.3.35-.43.6-.4s.3.26.17.67l-.89,2.77c-.37,1.09-.71,2.06-1,2.89l-.74,1.86-.82,2.17-1.05,2.44c-.15.37-.37,1-.66,1.82s-.49,1.51-.61,2a4.65,4.65,0,0,1-.41,1.16.84.84,0,0,1-.62.47c-.26,0-.55-.17-.86-.62a3.23,3.23,0,0,1-.5-1l-.75-2.24a4.75,4.75,0,0,1-.26-.93,1.74,1.74,0,0,1,.11-.86,3.93,3.93,0,0,1,1-.95,7.4,7.4,0,0,0,1.43-1.42c.37-.5.86-1.2,1.47-2.12s1.09-1.66,1.44-2.25.77-1.32,1.24-2.18Zm-1.92-17.16a9,9,0,0,1,1.71.44c.59.21,1.11.42,1.58.64a7.22,7.22,0,0,1,1.08.63,2.57,2.57,0,0,1,.69.79,2.71,2.71,0,0,1,.2,1.56,3.79,3.79,0,0,1-.25,1,1.43,1.43,0,0,1-.38.56,1.09,1.09,0,0,1-.69.16,2.15,2.15,0,0,1-.86-.13,4.17,4.17,0,0,1-1.41-1.25q-.92-1.08-1-1.23l-1.1-1.57-.74-1q-.36-.45-.15-.57a1,1,0,0,1,.65-.08Zm31,16.59c.76-.07,1.47-.16,2.12-.26a6.55,6.55,0,0,1,1.34-.14,3.56,3.56,0,0,1,1,.3c.39.16.83.38,1.34.63a1.68,1.68,0,0,1,.91.84,1,1,0,0,1,0,.71c-.08.17-.46.22-1.14.16l-1.66-.13-2.51-.16c-.24,0-1.18,0-2.82,0l-1.75,0c-.06.68-.11,1.18-.12,1.49l-.42,3.94-.18,2.06c.8,0,1.64,0,2.52,0a3.82,3.82,0,0,1,1.83.29,4.94,4.94,0,0,1,.94.71,7.22,7.22,0,0,1,.89,1,5.29,5.29,0,0,1,.71,1.38,2.68,2.68,0,0,1,.18,1.21.87.87,0,0,1-.46.65c-.25.14-.77,0-1.54-.46s-1.4-.8-1.89-1.06a15.37,15.37,0,0,0-2.48-.91l-1.15-.35c-.2,1-.36,1.88-.5,2.56a19.27,19.27,0,0,1-.47,1.92,8.46,8.46,0,0,1-.83,1.84,9.36,9.36,0,0,1-1.3,1.72,10,10,0,0,1-1.3,1.19,2.05,2.05,0,0,1-1.1.42,1.8,1.8,0,0,1-1.22-.74,10.07,10.07,0,0,1-.7-.9c-.36-.51-.91-1.2-1.63-2.08s-1.17-1.41-1.33-1.6l-.57-.55c-.27-.24-.36-.44-.28-.57s.26-.16.52-.07l1.45.5c.38.14.82.29,1.32.44a3.87,3.87,0,0,0,1.29.2,2.05,2.05,0,0,0,1.11-.3,3.32,3.32,0,0,0,1-1.14,7.91,7.91,0,0,0,.73-1.52l.6-1.72-2.84-.19c-1,0-2-.07-3,0a28.6,28.6,0,0,0-3.21.32A21,21,0,0,0,227,176a8.06,8.06,0,0,0-1.51.59c-.36.21-.77.46-1.21.75s-.72.4-.85.34a.68.68,0,0,1-.35-.39,4.31,4.31,0,0,1-.33-.88,4.64,4.64,0,0,1-.16-1.1,2.47,2.47,0,0,1,.16-1l1.05-1.42a7.18,7.18,0,0,0,.82-1.78,16.49,16.49,0,0,0,.57-2l.38-1.87-1.72.34c-.43.07-.87.16-1.31.25a5.6,5.6,0,0,1-.91.14,2.37,2.37,0,0,1-1.37-.38l-1-.7q-.62-.34-.66-.57a.48.48,0,0,1,.06-.35,1.84,1.84,0,0,1,.9-.17l2-.1,1.57,0,1.35-.15,1.34-.12c0-.48.1-.92.14-1.32s.09-1,.15-1.78a16.18,16.18,0,0,0,0-2.06,10.26,10.26,0,0,0-.27-1.7,6.74,6.74,0,0,0-.45-1.28,2.88,2.88,0,0,1-.26-.71.67.67,0,0,1,.09-.38c.06-.12.3-.19.7-.21a4.19,4.19,0,0,1,1.56.25l1.57.6,7-1.12a21.13,21.13,0,0,0,2.38-.47c.44-.14.85-.29,1.22-.45a4,4,0,0,1,.73-.28,2.62,2.62,0,0,1,.95.25c.45.18.85.37,1.21.55a13.5,13.5,0,0,1,1.39.85c.57.38.87.69.89.93a1.59,1.59,0,0,1-.18.76l-.62,1a5,5,0,0,0-.51,1.54,8,8,0,0,0-.19,1.45l-.15,2.19Zm-8.69-13.92c1.41-.3,2.43-.55,3.05-.74a5.23,5.23,0,0,1,1.38-.28,7.21,7.21,0,0,1,1.16.23,7,7,0,0,1,1.43.51c.4.2.58.43.55.67a.83.83,0,0,1-.39.5,3.19,3.19,0,0,1-1.23.43l-2.26.49c-.8.19-1.95.38-3.44.59l-3.31.46q-1.08.15-2.07.21a9.06,9.06,0,0,1-1.59,0l-1.17-.2-1.4-.2c-.46.53-.85,1-1.16,1.3a12.32,12.32,0,0,1-1,.94c-.34.3-.9.77-1.69,1.41a15.92,15.92,0,0,1-1.58,1.18l-1,.57c-.3.19-.51.19-.64,0s-.05-.39.21-.64l.85-.82c.12-.12.36-.42.75-.9l1.19-1.45a20.64,20.64,0,0,0,1.46-2.09c.51-.81,1.07-1.79,1.69-2.92s1.09-2.08,1.41-2.83a10.31,10.31,0,0,0,.63-1.92,9.75,9.75,0,0,0,.2-1.28,1.33,1.33,0,0,1,.14-.61.49.49,0,0,1,.21-.16.9.9,0,0,1,.31,0,3.11,3.11,0,0,1,1.09.41,9.33,9.33,0,0,1,1,.61,7.17,7.17,0,0,1,.77.69,1.48,1.48,0,0,1,.49.74,1.29,1.29,0,0,1,0,.56,2.37,2.37,0,0,1-.61.76,7.59,7.59,0,0,0-.9,1c-.26.35-.65.94-1.18,1.76s-.91,1.38-1.12,1.68l-.85,1.19Zm-7.91,23.73c.92-.12,1.65-.2,2.18-.25s1.46-.09,2.78-.11,2.11-.05,2.38-.07l2.46,0c.1-.66.21-1.35.31-2.07s.21-1.57.29-2.56l.2-2.62-11.93,1c-.21,1.07-.41,2-.6,2.89s-.36,1.61-.54,2.24l-.55,1.9Zm10.72-9.39c0-.48,0-.85,0-1.12l.1-2.07v-2.14c0-1-.11-1.53-.34-1.72a1.85,1.85,0,0,0-.85-.35,10.23,10.23,0,0,0-1.4.1l-1.61.2-4.76.75-2,.5c-.16,1-.27,1.74-.32,2.24l-.18,2.09-.37,2.49Zm-7,4.08a3.16,3.16,0,0,1,1.28.79,4.77,4.77,0,0,1,.81,1.54,1.23,1.23,0,0,1-.53,1.65,1.33,1.33,0,0,1-1.68-.07,2.12,2.12,0,0,1-.55-.79l-1.05-1.85-.57-1.19a.66.66,0,0,1,0-.56c.08-.18.35-.19.81,0Zm-1.44-8.21c-.19-.34-.23-.59-.13-.78s.32-.23.65-.15l1.39.38a3.76,3.76,0,0,1,1.51.67,2,2,0,0,1,.56.87,3.56,3.56,0,0,1,.09,1.27,1.56,1.56,0,0,1-.5,1.14,1.11,1.11,0,0,1-1.18.06,4.69,4.69,0,0,1-1.05-1.22,13,13,0,0,1-.82-1.2Z"/><path class="cls-18" d="M258.1,171.18a6.49,6.49,0,0,1,.28,1,7.89,7.89,0,0,1,.17,1.37,6.37,6.37,0,0,1-.17,1.6,8.41,8.41,0,0,1-.64,1.85,7.94,7.94,0,0,1-.9,1.5c-.32.42-.62.63-.9.64a1,1,0,0,1-.8-.43,1.9,1.9,0,0,1-.44-1,7,7,0,0,1-.11-1.14,1.8,1.8,0,0,1,.13-.78,2.24,2.24,0,0,1,.28-.42,7.68,7.68,0,0,0,.67-1.19c.28-.55.54-1.06.79-1.52a4.69,4.69,0,0,0,.47-1.05l.18-.73c.05-.25.17-.38.37-.41s.36.09.47.34Zm9.64-23.36,1.49-.45a6.52,6.52,0,0,0,1.32-.47l.9-.5a2.7,2.7,0,0,1,.55-.2,2.64,2.64,0,0,1,1,.21,10.27,10.27,0,0,1,1.24.53,3.5,3.5,0,0,1,1,.72c.28.29.4.52.36.68a1,1,0,0,1-.42.5l-1,.75a13.58,13.58,0,0,0-1.13,1c-.39.37-.8.81-1.24,1.31l-3.53,4,1.94-.5a10.77,10.77,0,0,0,1.54-.46,3.66,3.66,0,0,1,.68-.23,2.59,2.59,0,0,1,.91.15,9.26,9.26,0,0,1,1.46.61,7.79,7.79,0,0,1,1.45.88c.37.3.54.57.51.82a1.47,1.47,0,0,1-.22.45l-.47.7a6.48,6.48,0,0,0-.36.61c-.06.14-.17.45-.32.93L273.39,166a5.39,5.39,0,0,1-.73,1.54,1.13,1.13,0,0,1-1.06.53.81.81,0,0,1-.77-.5l-.3-.55-8.19,1-.38,1a.62.62,0,0,1-.5.4c-.25,0-.49-.12-.73-.5a2.81,2.81,0,0,1-.44-1.12l-.92-6.57a9.26,9.26,0,0,0-.25-1c-.13-.47-.25-.84-.35-1.1a3.35,3.35,0,0,0-.59-.94,5.62,5.62,0,0,1-.55-.72.4.4,0,0,1-.06-.32c0-.1.11-.17.26-.24a1.32,1.32,0,0,1,.6-.08l1.17.23.84.2,3-.41c.69-.09,1.09-.16,1.19-.19l1.45-.27,3.06-5.08c.26-.44.48-.84.66-1.21s.22-.62.15-.72-.43-.1-1.06,0a12.48,12.48,0,0,1-1.25.23,2.92,2.92,0,0,1-1.27-.05l-.87-.33-.89,1c-.27.28-.82.78-1.66,1.51s-1.47,1.25-1.9,1.55a13.52,13.52,0,0,1-1.5.89l-.75.4c-.31.19-.52.21-.63.09s-.05-.3.19-.54l.69-.72.95-.94q.54-.59,1.47-1.68c.61-.74,1.11-1.38,1.48-1.91s.77-1.15,1.18-1.87a18.82,18.82,0,0,0,1-1.8,9.63,9.63,0,0,0,.48-1.22,9.19,9.19,0,0,0,.23-1.1,6.15,6.15,0,0,0,.11-.94.83.83,0,0,1,.12-.47.58.58,0,0,1,.32-.19,1.36,1.36,0,0,1,.73.14,6.82,6.82,0,0,1,1,.54,8.48,8.48,0,0,1,.92.69,3.5,3.5,0,0,1,.63.67.74.74,0,0,1,.15.62,1.37,1.37,0,0,1-.48.56,8.71,8.71,0,0,0-1.22,1.36c-.53.66-.79,1-.79,1l-1,1.39Zm-6,23.61.72.32a4.33,4.33,0,0,1,1,.76,2.86,2.86,0,0,1,.6.83,2.72,2.72,0,0,1,.17.94,4.74,4.74,0,0,1,0,.88,1.34,1.34,0,0,1-.36.69.73.73,0,0,1-.54.21,1.08,1.08,0,0,1-.72-.44,3.92,3.92,0,0,1-.72-1.25l-.5-1.23a8.14,8.14,0,0,1-.45-1l-.17-.57a.4.4,0,0,1,0-.35c.07-.11.24-.11.52,0Zm1.42-13.25-1.75.22.33,3.44,1.87-.25,1.69-.22c0-.39,0-.7-.06-1a8.24,8.24,0,0,0-.2-1,4.39,4.39,0,0,0-.34-1l-.25-.42C263.71,158.11,263.27,158.18,263.16,158.18Zm2.11,4.86-1.78.16a5,5,0,0,1-1,0l-.57-.05.35,3.34,3-.53Zm1.27,7.42a10.73,10.73,0,0,1,1.25.64,2.36,2.36,0,0,1,1,1,2.93,2.93,0,0,1,.21,1.16,2.48,2.48,0,0,1-.27,1.22,1,1,0,0,1-.57.49.86.86,0,0,1-.72-.32,3,3,0,0,1-.75-1.09l-.77-1.47a5.58,5.58,0,0,1-.43-1l-.17-.5a.45.45,0,0,1,0-.36c0-.1.19-.12.42,0Zm.88-12.48a1.39,1.39,0,0,1,.53.34.68.68,0,0,1,.16.48,3.64,3.64,0,0,1-.18.62,3.41,3.41,0,0,0-.19.7l-.13.82,1.62-.35a5.76,5.76,0,0,1,1.2-.1,2.19,2.19,0,0,1,1,.28l.58.32.25-1.22.25-1.69a1.68,1.68,0,0,0,0-1,.88.88,0,0,0-.59-.37,4,4,0,0,0-.89.1l-1.37.23-3,.5C266.89,157.76,267.17,157.88,267.42,158Zm3.31,4.21-1.62.27-1.55.2-.24,3,1.29-.27a5,5,0,0,1,1-.14,3.42,3.42,0,0,1,.78.06l.75.15.7-3.41Zm.72,7.17a17.48,17.48,0,0,1,2.58,1.37,2.74,2.74,0,0,1,.68.72,3,3,0,0,1,.4,1.07,3.35,3.35,0,0,1-.05,1.4,2.13,2.13,0,0,1-.36.76.85.85,0,0,1-.74.31,1.19,1.19,0,0,1-.87-.49,15.41,15.41,0,0,1-1.14-1.57c-.48-.72-.78-1.18-.9-1.37s-.31-.53-.57-1l-.5-.9c-.13-.21-.17-.38-.1-.51s.28-.13.65,0ZM282,162a10.64,10.64,0,0,1-1.23.11,5.22,5.22,0,0,1-1.45-.15,1.73,1.73,0,0,1-1-.6c-.2-.28-.28-.46-.23-.53s.23-.14.53-.19l1.52-.2c.64-.08,1.29-.18,1.94-.3l2.14-.37c0-.43,0-.79,0-1.06s0-.68-.09-1.21-.09-.89-.12-1.07l-.28-1.17-1.72.19a14.79,14.79,0,0,1-1.49.08,10,10,0,0,1-1.74-.1,2.45,2.45,0,0,1-1.42-.52c-.29-.26-.39-.46-.3-.58s.3-.22.65-.27l1.66-.19c.5-.05,1.34-.18,2.53-.38s2.11-.37,2.78-.52l3.24-.72c1.26-.25,2.18-.47,2.76-.65a6.86,6.86,0,0,1,1.24-.3,3.85,3.85,0,0,1,1.14.21,4.65,4.65,0,0,1,1.26.63c.39.27.56.5.51.68s-.25.32-.56.42l-1.37.43a19.5,19.5,0,0,1-2,.39l-2.29.43-2.07.35,1,.56c.32.19.5.37.53.54a1.64,1.64,0,0,1-.21.88,4.25,4.25,0,0,0-.31,1.05l-.22,1.25,1.39-.27a12.61,12.61,0,0,0,1.38-.33,5.41,5.41,0,0,1,1-.22,9.75,9.75,0,0,1,1.22.18,4.62,4.62,0,0,1,1.46.5c.32.21.46.39.43.53s-.17.26-.4.37a7,7,0,0,1-1.49.36l-5.06.9-.05,4.3,2.34-.29,2.22-.28,2.24-.35c.76-.1,1.31-.18,1.65-.25a4.6,4.6,0,0,1,.74-.09,3.78,3.78,0,0,1,1,.24,10.55,10.55,0,0,1,1.37.61,4.83,4.83,0,0,1,1.09.75q.36.36.36.54a.54.54,0,0,1-.26.35,1.68,1.68,0,0,1-.79.14l-1.72.08-1.86.05-2.64.15-3.14.15-2.67.2-.32,8.59-.1,3.21c-.07.78-.18,1.69-.35,2.72s-.33,1.93-.5,2.71a5.89,5.89,0,0,1-.54,1.66q-.3.48-.48.51c-.11,0-.26-.15-.42-.5a4,4,0,0,1-.3-1.94l-.12-2.44c0-.44,0-1.43,0-3l0-3.09.15-8.14-1.57.19-2.23.33c-.89.13-1.63.28-2.24.43a4.93,4.93,0,0,1-1.26.22,1.75,1.75,0,0,1-.72-.13c-.2-.08-.55-.25-1-.5a3.12,3.12,0,0,1-1-.68c-.17-.21-.22-.37-.17-.47s.3-.19.77-.24l1.59-.15,3.61-.42,4.28-.48.08-4.16Zm-3.72-17.57c-.14-.25-.14-.44,0-.56s.36-.14.73,0l1,.32a12.16,12.16,0,0,1,1.27.54,9.86,9.86,0,0,1,1.31.75,2.38,2.38,0,0,1,.82.89,3.11,3.11,0,0,1,.26,1.38,4.55,4.55,0,0,1-.21,1.31,1.66,1.66,0,0,1-.54.84,1,1,0,0,1-.77.2,1.4,1.4,0,0,1-.84-.48,9,9,0,0,1-1-1.33c-.38-.61-.68-1.12-.89-1.53l-.67-1.32Zm7.54,7.27c-.41.28-.67.35-.77.21s0-.39.3-.76l.9-1.09c.59-.73,1.14-1.44,1.64-2.11a14,14,0,0,0,1.23-1.93,17.62,17.62,0,0,0,.8-1.68,4.87,4.87,0,0,0,.37-1.34,1.39,1.39,0,0,1,.21-.73c.1-.09.33-.11.68-.06a6.25,6.25,0,0,1,1.59.6,7.29,7.29,0,0,1,1.53,1c.36.31.5.56.41.76a.92.92,0,0,1-.35.32l-.89.55a10.66,10.66,0,0,0-1.05.92l-1.32,1.17-2.26,2.07a15.74,15.74,0,0,1-1.75,1.32Z"/><path class="cls-18" d="M110.22,209c2.26-.11,2.48-.57,2.48-2.54V195.42c0-2-.22-2.43-2.48-2.54v-.38h11.47c0,1.46.13,2.86.24,4.16l-.48.05c-.52-2.86-1.22-3.56-4.32-3.56h-2.27c-.7,0-.76,0-.76.75v6.56h3.11c2.53,0,2.75-.24,3.21-2.05h.46v5.24h-.46c-.46-2.11-.68-2.43-3.21-2.43H114.1v5.26c0,2,.25,2.41,3,2.54v.38h-6.85Z"/><path class="cls-18" d="M122.37,209c2.4-.11,2.61-.57,2.61-2.7V195.5c0-2.14-.21-2.43-2.48-2.59v-.41h6.37c2.67,0,5.59.81,5.59,4.27,0,2.29-1.22,3.64-3.29,4.58a34.64,34.64,0,0,0,2.4,3.7c1.29,1.6,3.18,3.92,4.56,4.24l-.08.35c-2.46,0-3.75-.13-7.83-6.8-.67-1-1.48-1-3.78-1v4.48c0,2.13.22,2.59,2.54,2.7v.38h-6.61Zm5.72-7.72a5,5,0,0,0,3.29-.81,4,4,0,0,0,1.41-3.32c0-2.89-1.87-4.13-4.67-4.13-.73,0-1.19,0-1.44.05s-.24.09-.24.6v7.61Z"/><path class="cls-18" d="M137.7,209c2.54-.13,2.73-.59,2.73-2.67V195.77c0-2.32-.22-2.78-2.46-2.89v-.38h11.74c0,.95.14,2.54.25,4.13l-.46.08c-.57-2.75-1.08-3.56-4.35-3.56h-2.54c-.72,0-.75,0-.75.75v6.32H145c2.13,0,2.64-.27,3-2.08h.46v5h-.46c-.44-2.08-1-2.18-3-2.18h-3.16v5.26c0,2.54,1.11,2.54,3.35,2.54,1.64,0,3.26,0,4.13-1a8.55,8.55,0,0,0,1.51-2.67h.46c-.25,1-.76,3.4-1,4.32H137.7Z"/><path class="cls-18" d="M160.73,196.42c-.46-1.57-1.11-3.7-3.73-3.7a2.73,2.73,0,0,0-2.91,3c0,2.27,1.65,3.16,3.4,4,1.19.59,4.51,1.75,4.51,5.13,0,2.8-2.16,4.83-5.56,4.88a10.76,10.76,0,0,1-2.73-.43,4.66,4.66,0,0,1-1.16-.51,30.71,30.71,0,0,1-.65-4.27h.43c.44,1.46,1.6,4.51,4.76,4.51,2.07,0,3.34-1.13,3.34-3.51,0-2.72-2.21-3.64-3.64-4.45-.24-.14-4.21-1.4-4.21-4.7,0-2.24,1.83-4.34,5-4.34a9.17,9.17,0,0,1,3.16.56c.1.92.24,1.92.43,3.76Z"/><path class="cls-18" d="M166.59,200.06H178v-4.48c0-2.11-.21-2.51-2.54-2.7v-.38H182v.38c-2.38.19-2.6.59-2.6,2.7v10.74c0,2.13.22,2.54,2.52,2.7v.38h-6.67V209c2.54-.16,2.75-.57,2.75-2.7V200.9H166.59v5.42c0,2.13.24,2.54,2.62,2.7v.38H162.7V209c2.27-.16,2.49-.57,2.49-2.7V195.58c0-2.11-.22-2.51-2.59-2.7v-.38h6.47v.38c-2.24.19-2.48.59-2.48,2.7Z"/><path class="cls-18" d="M195.75,196.42c-.46-1.57-1.11-3.7-3.73-3.7a2.73,2.73,0,0,0-2.91,3c0,2.27,1.64,3.16,3.4,4,1.19.59,4.51,1.75,4.51,5.13,0,2.8-2.16,4.83-5.56,4.88a10.68,10.68,0,0,1-2.73-.43,4.66,4.66,0,0,1-1.16-.51,30.71,30.71,0,0,1-.65-4.27h.43c.44,1.46,1.6,4.51,4.75,4.51,2.08,0,3.35-1.13,3.35-3.51,0-2.72-2.21-3.64-3.64-4.45-.25-.14-4.21-1.4-4.21-4.7,0-2.24,1.83-4.34,5-4.34a9.17,9.17,0,0,1,3.16.56c.1.92.24,1.92.43,3.76Z"/><path class="cls-18" d="M197.45,209c2.54-.13,2.73-.59,2.73-2.67V195.77c0-2.32-.22-2.78-2.46-2.89v-.38h11.74c0,.95.14,2.54.25,4.13l-.46.08c-.57-2.75-1.08-3.56-4.35-3.56h-2.54c-.72,0-.75,0-.75.75v6.32h3.16c2.13,0,2.64-.27,3-2.08h.46v5h-.46c-.44-2.08-1-2.18-3-2.18h-3.16v5.26c0,2.54,1.11,2.54,3.35,2.54,1.64,0,3.26,0,4.13-1a8.55,8.55,0,0,0,1.51-2.67h.46c-.25,1-.76,3.4-1,4.32H197.45Z"/><path class="cls-18" d="M222.15,209c1.54-.22,2.11-.38,2.11-1a26.22,26.22,0,0,0-1.81-5.3h-6.24a25.94,25.94,0,0,0-1.61,5c0,.92.72,1.08,2.24,1.32v.38h-6.13V209c1.89-.38,2.24-.62,3.24-3.05l5.85-13.74.33-.13,1.81,5c1.24,3.37,2.45,6.75,3.48,9.34.81,2,1,2.29,2.91,2.59v.38h-6.18Zm-2.62-14.41c-1.07,2.4-2.13,5-3,7.23h5.67l-2.62-7.23Z"/><path class="cls-18" d="M228.34,209c2.27-.11,2.48-.57,2.48-2.54V195.42c0-2-.21-2.43-2.48-2.54v-.38h11.47c0,1.46.14,2.86.24,4.16l-.48.05c-.51-2.86-1.22-3.56-4.32-3.56H233c-.7,0-.75,0-.75.75v6.56h3.1c2.54,0,2.75-.24,3.21-2.05H239v5.24h-.46c-.46-2.11-.67-2.43-3.21-2.43h-3.1v5.26c0,2,.24,2.41,3,2.54v.38h-6.86Z"/><path class="cls-18" d="M259.11,200.71a9.08,9.08,0,0,1-9.42,9.09,8.64,8.64,0,0,1-8.93-8.63,9.12,9.12,0,0,1,9.53-9.07A8.64,8.64,0,0,1,259.11,200.71Zm-16.46-.33c0,5.27,3.32,8.78,7.69,8.78,3.65,0,6.94-2.51,6.94-7.32,0-6.13-3.43-9.1-7.78-9.1C245.91,192.77,242.65,195.17,242.65,200.38Z"/><path class="cls-18" d="M278.45,200.71c0,5.37-4.3,9.09-9.43,9.09a8.64,8.64,0,0,1-8.93-8.63,9.12,9.12,0,0,1,9.53-9.07A8.64,8.64,0,0,1,278.45,200.71ZM262,200.38c0,5.27,3.32,8.78,7.69,8.78,3.65,0,6.94-2.51,6.94-7.32,0-6.13-3.43-9.1-7.77-9.1C265.25,192.77,262,195.17,262,200.38Z"/><path class="cls-18" d="M279.1,209c2.45-.11,2.67-.57,2.67-2.7V195.58c0-2.11-.22-2.57-2.43-2.67v-.41h7.86c3.26,0,5.88.54,7.53,2.13a7.38,7.38,0,0,1,2.18,5.59c0,7.15-6.2,9.18-11.6,9.18H279.1Zm4.07-2.78c0,2.08.44,2.51,3.14,2.51,6.61,0,8.82-4.29,8.82-7.88,0-3.08-1.24-5.86-3.78-7.05a15.75,15.75,0,0,0-5.56-.78c-1.37,0-2.13,0-2.37.05s-.25,0-.25.52Z"/></g><g id="灯泡"><line class="cls-13" x1="604.16" y1="81.54" x2="604.16" y2="117.67"/><rect class="cls-19" x="597.25" y="118.45" width="14.19" height="18.58" rx="3.21"/><path class="cls-20" d="M616.2,155.14h0V142.28a4.7,4.7,0,0,0-4.69-4.7H597.19a4.7,4.7,0,0,0-4.69,4.7v12.86c0,.06,0,.12,0,.18a24.28,24.28,0,1,0,23.68-.18Z"/><line class="cls-13" x1="602.28" y1="123.61" x2="611.45" y2="123.61"/><line class="cls-13" x1="604.35" y1="127.74" x2="597.25" y2="127.74"/><line class="cls-13" x1="611.45" y1="132.35" x2="604.16" y2="132.35"/></g></g><g id="男"><g id="衣服"><path class="cls-21" d="M584.46,352.68s-34.28-6.47-28.06-29.53c0-14.15,18.09-6,18.09-6s-21.42-32.46-5.93-35.46c10.58-3.51,12.38,6.88,12.38,6.88s-14.71-27.94,1.29-32.84,14.71,4.9,14.71,4.9,5.68-36.39,19.36-31.48,2.32,22.45-4.13,29.93c3-3.84,12.9-9,17-.51s-4.39,20.64-9.55,21.16,15.49-8,14.71,11-23,23.62-23,23.62,18.33-3.61,13.94,10.32S613.52,342.28,584.46,352.68Z"/><path class="cls-21" d="M568.15,234.53s-7.74-10.84,0-11.22,11.22,7.35,11.22,7.35-12-26.71,1.09-25.55,9.17,27.29,9.17,27.29,4.36-15.09,10.4-9.68,8.18,34.48-8.08,62S568.15,234.53,568.15,234.53Z"/><path class="cls-21" d="M577.23,236.41s7.84,5.2,8.15,9.41"/><path class="cls-13" d="M581.86,217.24s7.92,48.16,2,57.16"/><path class="cls-21" d="M596.72,236.41s-10.48,9.82-10.71,20.21"/><path class="cls-21" d="M597.69,260s-7.52-3-11.68,8.83"/><path class="cls-12" d="M570.85,318.4S585,304,594.08,310.47s9,30.22,9,30.22L579,344.32S564.66,327.56,570.85,318.4Z"/><path class="cls-22" d="M494.71,211.7s-33.95-1.8-56.65,25c11.7,2.79,56.92,12.12,56.92,12.12l-3.77,116.91s25.06-27.87,30-39.59c-7.93-49.57,21-106.62,21-106.62l-19.76-5.18s-7.45,16.1-21.58,14.65S494.41,215.4,494.71,211.7Z"/><path class="cls-23" d="M419.75,459.21s-7,13.13,7.49,16.74,50,21.84,101.11,7c0,0-10.29-13.76-12.05-40.43S419.75,459.21,419.75,459.21Z"/></g><g id="裤子"><path class="cls-24" d="M495,581.37,570.27,503l-1-7.45-31.92-19.16s-108.73-2.9-114.9-2.4c0,0-6.46,28-1.82,39.62s67,82.84,74.32,67.74"/><path class="cls-24" d="M569.3,495.57s17,123.35,6.59,163.61-1.57,53-4.27,68.51-3.09,44.13-16.64,44.13-74.32-139-56.13-232.26"/><path class="cls-13" d="M534.85,497.27s10.07,40.36,29.42,49.26"/></g><g id="头"><path class="cls-9" d="M539.89,126.92l-40.26-22.45-37.16,4.06-19.94,23.61,52.58,63.3s.84,19.74-2.45,23.9,10.63,18.19,24.72,2.22c9.54-10.25,10-23.52,8.57-51.09Z"/><path class="cls-22" d="M498,51.69v-.13a28.78,28.78,0,1,0-50.3,19.09A23.35,23.35,0,1,0,422.43,110c-7.53.13-13.67,3.15-15.73,8.5-3.18,8.24,4.54,18.89,17.24,23.79s25.57,2.17,28.75-6.07c1.59-4.12.46-8.84-2.66-13.14a12.08,12.08,0,0,0,16.7-11.14,2,2,0,0,0,0-.25A16.35,16.35,0,0,0,481,119.31c8.82,0,16-6.38,16-14.09l.16-.12a23.64,23.64,0,0,0,.1,3.45c.8,7.66,5.13,13.48,9.67,13,2.42-.25,4.4-2.26,5.61-5.23a11,11,0,0,0-.74,4A11.31,11.31,0,0,0,530.13,129a23.36,23.36,0,1,0,29.2-28.07,16.76,16.76,0,0,0-7.57-31.36A16.37,16.37,0,0,0,532,43.62a17,17,0,0,0-17-16.18c-9.4,0-17.54,2.64-17,24.12Z"/><path class="cls-13" d="M449.34,140.74c5.39,5.28,36,26,83.84-3.76"/><path class="cls-9" d="M526,150.1c1-7.52,4.79-14.15,11.81-14.15,7.73,0,14,7,14,15.61s-6.27,15.62-14,15.62a13.66,13.66,0,0,1-11.63-6.93"/><path class="cls-13" d="M532.15,150.63s4.64-6.29,11.22-4.36"/><path class="cls-13" d="M536,159.73s4.25-3.7,1.74-13.27"/><path class="cls-25" d="M453.36,143.88s-12.12,15.94-4.79,39.17,47,13.35,52.87,10.19,7.48-16.13,7.28-44.61C504.4,149.92,480.24,159.67,453.36,143.88Z"/><circle class="cls-26" cx="494" cy="143.88" r="2.74"/><circle class="cls-26" cx="466.37" cy="138.89" r="2.74"/><line class="cls-13" x1="504.57" y1="189.92" x2="531.44" y2="165.49"/></g><g id="箱子"><polygon class="cls-27" points="320.98 251.37 306.66 258.14 430.18 303.24 494.98 248.85 380.5 225.24 320.98 251.37"/><polygon class="cls-28" points="320.21 255.44 428.02 291.82 477.47 251.75 379.9 229.63 320.21 255.44"/><polygon class="cls-27" points="306.66 258.14 310.73 406.4 430.18 457.66 430.18 303.24 306.66 258.14"/><polygon class="cls-27" points="430.18 303.24 494.98 248.85 489.56 420.34 430.18 457.66 430.18 303.24"/><circle class="cls-28" cx="330.14" cy="357.54" r="8.22"/><circle class="cls-28" cx="364.34" cy="370.28" r="8.22"/><circle class="cls-28" cx="400.82" cy="382.73" r="8.22"/><path class="cls-13" d="M445.14,359.35l25.2-17.85s5.42-4.12,5.68,1.68-1.81,22.32-11.87,29.29-19.54-.77-20.52-6.39C443.21,363.66,443.2,360.72,445.14,359.35Z"/><path class="cls-28" d="M470.34,341.5s.74,28.9-21.24,31.74c0,0-8.65-5.17-4.74-13.13C450.11,355.83,470.34,341.5,470.34,341.5Z"/><path class="cls-28" d="M430.18,303.24v7.29l23.06,21.68s5,4.64,9.36,0S517,278.79,517,278.79v-8.45l-22-21.49Z"/><path class="cls-27" d="M430.18,303.24l25.45,22.93s2.32,4,8.26-1.7S515.5,274.4,515.5,274.4s4.13-2.58-1.55-7.48-19-18.07-19-18.07Z"/><path class="cls-28" d="M284.34,284.85s-3.16,8.65,5.61,13,103.33,47,103.33,47,7.64,2.85,11.25-1.67,25.65-32.65,25.65-32.65v-7.29l-123.52-45.1Z"/><path class="cls-27" d="M306.66,258.14l-21.61,26.71s-3.61,1.68,5.42,7,103.22,46.32,103.22,46.32,4.91,4.39,11.1-2.83,25.39-32.07,25.39-32.07Z"/></g><g id="袖子"><path class="cls-22" d="M522.14,214.82s41,4.61,53.36,29.78,3.48,68.9,0,78.19-57.68,145.55-91,148.64c-8.51.39-13.93,0-20.13-5S454,419.18,454,419.18s-2.71-20.13,20.91-37.17c18.86-13.6,47.84-53.63,60.92-82.81,3.29-7.34,5.57-14,6.43-19.38l-6.93,20.49"/><path class="cls-22" d="M464.79,411.05s-4.06,15.48,16.65,16.84c-13.94-1.17-14.91,23.8-.39,29.22-8.1,1.55-18,17.81-39.68,9.49a32.56,32.56,0,0,0-.77-31,38.88,38.88,0,0,1-5.23.58s-7.56-10,5.81-10.84a99,99,0,0,0,23.22-4.26Z"/><path class="cls-22" d="M447.37,432.53s14.65,1.85,19.19-2.7"/><path class="cls-22" d="M450.27,442s11.47,1.09,16.29-2.9"/><path class="cls-22" d="M451.63,451.31s11.26.89,15.44-2.37"/><path class="cls-22" d="M452.6,459.63s11.61,1.25,16.06-4.07"/></g><g id="鸡1"><path class="cls-29" d="M320.21,255.43s10.26-63,39.68-62.85c13.93,0,23,34.79,23.61,53.95s-12.77,25-12.77,25Z"/><circle class="cls-26" cx="348.08" cy="205.05" r="2.37"/><circle class="cls-26" cx="360.86" cy="205.87" r="2.37"/><path class="cls-12" d="M354.08,202.68s-14.52-13.48-2.47-10.54c-5.9-3.87-1.21-10.06,2.47-4.25,0-5.42,5.23-13.36,9.29,1.93C363.23,193.5,355.44,202.37,354.08,202.68Z"/><polygon class="cls-30" points="352.92 209.95 344.4 214.37 353.31 221.28 362.21 215.56 352.92 209.95"/><path class="cls-13" d="M328.92,243.82s-.77,6.39-2.71,7.55"/><path class="cls-13" d="M339.56,245.37s-2.7,7,0,9.29"/><path class="cls-13" d="M350.45,248.85s.92,4.07-.82,5.81"/><path class="cls-13" d="M358.49,247.6s-2.09,4.74-1.12,7.06"/><path class="cls-13" d="M364.34,248.85s1.16,5,2.71,5.81"/><path class="cls-13" d="M375.18,245.37a10,10,0,0,1,0,5.76"/><path class="cls-13" d="M333,247.6a3.43,3.43,0,0,0-.77,3.77"/></g><g id="鸭子"><path class="cls-14" d="M385.05,152.66s6-8.78,16.26-8.78,21.48,4.33,24,30.07-9.18,59.79-2.08,74.9-15,36-15,36L370.73,271.5S368.6,259.11,388,242.85s16.65-41,10.07-49.74S371.89,177.25,385.05,152.66Z"/><circle class="cls-26" cx="395.65" cy="157.06" r="2.37"/><path class="cls-20" d="M387.56,160.21s-2.09.57-5.33,1.33C376.12,163,365.92,165,358,165c-12.19,0-3.29,6.24,2.71,8.37S388,177.26,401.31,171C401.31,166,387.37,168.34,387.56,160.21Z"/></g><g id="鸡2"><path class="cls-31" d="M409.24,283.69s2.13-77.22,33.29-77.8c0,0,16.07-1.36,17.42,23.71s7.74,29.71,7.74,29.71L428,291.82Z"/><path class="cls-12" d="M435.32,225.23c-3.38,0-7.88,1.32-7.88,3.79s4.83,4.34,7.93,4.35,8.66-1.26,8.66-4.06S438.71,225.24,435.32,225.23Z"/><path class="cls-13" d="M416.4,266.27s-2.32,6.33.26,10.33"/><path class="cls-13" d="M423.24,266.92s-.25,7.48,2.07,9.16"/><path class="cls-13" d="M432.66,266.27s2.32,5.68,0,8.13"/><path class="cls-13" d="M439.63,264.72s4,6.2.87,10.17"/><path class="cls-13" d="M448.15,264.72s-1.46,5.62,0,8.13"/><path class="cls-13" d="M453.86,264.72a5,5,0,0,0,.09,5"/><circle class="cls-26" cx="445.27" cy="219.98" r="2.74"/><circle class="cls-26" cx="430.18" cy="219.98" r="2.74"/><path class="cls-12" d="M435.76,216.05s-13.36-6.49-9.87-12.68,8.71,1.35,8.71,1.35-2.71-15.27,2.51-14.8,4.07,8.12,4.07,8.12,1.35-11.5,7.16-8.12,5,12.29,2.13,15.58S440.4,215.19,435.76,216.05Z"/></g><path id="右手" class="cls-9" d="M441.63,437.63s-2.2,1.48-8.39.9-18.38-13.35-18.38-13.35-3.49-5-8.13,0-2.13,8.13,1,10.83,13.36,10.26,13.36,10.26a32.81,32.81,0,0,0-19.36-6.38c-12-.2-26.32-2.74-33.87-9.12s-10.84.6-10.84.6-4.25,3.17,8.13,10.59,19.55,14.89,36.2,15.7,41.89,4.51,41.89,4.51S448.47,454.15,441.63,437.63Z"/><g id="塑料袋子"><path class="cls-32" d="M310.68,404.8c0-1.64-2.57-2.06-2.57-2.06s-34.63,75-31.55,99.79,22.42,47.48,55.2,48,58.58-20.39,58.58-47.74c0-26.64-25.89-70.12-31.64-75.8,0,0,5.19,1.32-12.23-5.25-2.92,21.7-12,20.62-20.35,19.46s-18.88-10.83-8.62-30.15Z"/><path class="cls-33" d="M317.5,411.05S303,436.12,327.76,441.2c15.87,3.52,16.94-14.17,17.82-19.84C332.85,415.89,317.5,411.05,317.5,411.05Z"/><path class="cls-33" d="M325.16,412.6S313.89,433.92,336,440s22.68-13,22.68-13Z"/><path class="cls-32" d="M336,440.88s-21-5.81-11.48-26.95a73,73,0,0,0-7.77-2.88S301.83,444.13,336,440.88Z"/></g><g id="左手指"><rect class="cls-9" x="314.34" y="386.66" width="13.42" height="25.94" rx="5.07"/><rect class="cls-9" x="300.43" y="389.66" width="13.89" height="21.42" rx="5.87" transform="translate(-115.69 125.06) rotate(-19.43)"/><rect class="cls-9" x="326.71" y="397.24" width="12.28" height="21.29" rx="6.14" transform="translate(-83.72 85.97) rotate(-13.09)"/><rect class="cls-9" x="336.02" y="408.47" width="10.45" height="15.1" rx="5.06"/></g><g id="菜袋"><path class="cls-34" d="M533.18,304.73s5.21-75,22.41-79.35c3.63,2.14,4,1.54,3-3.11s-11.52-9.83-16.47-2.72-29,68.59-21,106.62C526,318.2,533.18,304.73,533.18,304.73Z"/><path class="cls-13" d="M497.49,359.35l-5-16.17s1.24,9.1,13,5.9C501.72,354.07,497.49,359.35,497.49,359.35Z"/><path class="cls-13" d="M518.57,330.29s-27.07,3.48-26,12.89,13,5.9,13,5.9Z"/><path class="cls-31" d="M516.3,442.56s2.68,44,23.59,48.62,90.19,13.16,118.06-5,29.42-58.83,22.07-97.93-13.55-38.49-13.55-38.49l-1.16,7.94s-13.17-11.26-10.84-34.1c0,0-30.62,18.38-89.78,21.95C555.26,370.28,516.3,442.56,516.3,442.56Z"/></g><g id="菜"><path class="cls-21" d="M670.88,285.52s30.17-8.65,33.78-.46-10.58,9-10.58,9,24,2.58,25,13.67c-6.71-2.06-8,2.55-8,2.55s17.29,11.9,8,36.68c-4.9-3.74-13.16-19.4-13.16-19.4s3.61,11.66.52,14-16.78-18.58-17-20.13S697.18,338,692.53,340s-28.74-15.89-29.34-25.78-10.92-25.75-10.92-25.75Z"/><path class="cls-21" d="M625.34,335.23s-34.28-6.47-28.06-29.52c0-14.15,18.09-6,18.09-6s-21.42-32.46-5.93-35.45c10.58-3.51,12.38,6.87,12.38,6.87s-14.71-27.93,1.29-32.84,14.71,4.91,14.71,4.91,5.68-36.39,19.36-31.49,2.32,22.45-4.13,29.94c3-3.85,12.9-9,17-.52s-4.39,20.65-9.55,21.16,15.49-8,14.71,11-23,23.61-23,23.61,18.33-3.61,13.94,10.33S654.4,324.84,625.34,335.23Z"/><path class="cls-13" d="M646.34,248.85s-19.72,77-16.31,84.69"/><path class="cls-13" d="M610.21,307.69s16.77,15.23,18.06,21.42"/><path class="cls-13" d="M650,305.63s-11.11,1.85-18.44,9.22"/><path class="cls-13" d="M618,277s16.35,13.24,16.43,23"/><path class="cls-13" d="M657.69,273.24s-14.59,3.91-20.06,11.82"/><path class="cls-13" d="M628.27,251.43s13,9.33,13.23,17.05"/><path class="cls-13" d="M657.69,252.72s-10.09,1.09-13.56,4.94"/><path class="cls-21" d="M670.88,262.23s11.85-19.84,19.33-13.64-11.85,17.55-15.6,18.71c0,0,25.15-10.42,24.37,1.18s-11.81,16-28.1,17C674.78,277,678.39,269.16,670.88,262.23Z"/><path class="cls-21" d="M663.19,314.23s34,6.37,35.81,52.56c0,13.93-30.73-11.42-32.53-17.07l-1.08,7.37s-13.63-9.53-10.92-33.53S663.19,314.23,663.19,314.23Z"/><path class="cls-13" d="M657.69,320.08s31.49,36.13,32,40.13"/><path class="cls-13" d="M667.76,303.24s32.26,1.61,41.55,18.13"/><path class="cls-13" d="M687.06,296.34s-7.69,4.26-9,6.9"/><path class="cls-13" d="M682.57,305.49s-.06,5.72,2.37,8.74"/><path class="cls-13" d="M699,303.24s-9.82,1.61-8.79,4.45"/><path class="cls-13" d="M699,321.37s-5.11-4.78-2.17-10.9"/><path class="cls-13" d="M691.5,271.11s-18.5,9-17.81,11.55"/><path class="cls-21" d="M618,241.71s-15.86-13.5-5-20.73,13.18,16.49,13.18,16.49"/><path class="cls-21" d="M616.76,243.73s-14.29-9.34-15.07,5.12,3.4,16.11,7.75,15.39a8.15,8.15,0,0,1,9.34,1.39C616.52,256.77,613.9,252.81,616.76,243.73Z"/><path class="cls-13" d="M580.46,327.52s4.91-3.76,6.85-2.8"/><path class="cls-13" d="M581.86,333.54s7.19-5.23,9.9-3.25"/><path class="cls-34" d="M580.46,260.73s26,48.17,32.2,90.53c2.45,11-9.66,12.37-11.22,1.21,0,0-9.21-51.24-19.58-63.75C581.86,277,581.94,272.6,580.46,260.73Z"/></g><g id="鱼"><path class="cls-35" d="M322.84,493.89s17.31,20.66,30.47,8.88,5.22-26.11-9.87-24.56-15.1,7-15.1,7-8.13-6.9-1.55-16.23,13.7-2.16,13.7-2.16-11-12.91,0-20.13c0,0-2.09,12.77,13.78,17.61s35,15.49,36,41.42-30.63,44.41-49.75,44.85-37.55-1.52-52.91-21-11-39.76-8-50.35c0,0,4.41-.7,7.5,7.82s.52-11.36,3.87-11.1,27.62,4.65,33.55,21.68-17.29,34.06-29.42,31.74"/><circle class="cls-36" cx="310.89" cy="499.79" r="5.9"/><path class="cls-33" d="M333.45,519.43s23.86,6.58,25.25,11.81-17.09,8.32-25.85-2.13"/></g></g><g id="女"><g id="鞋子"><path class="cls-37" d="M504.55,876s-1.24,85.07-32.24,81.66-31.75-14.4-30.62-20.46,6.08-15.54,6.08-15.54l50.65-47.86Z"/><path class="cls-38" d="M458.75,883.91s-13.27,41.17-12.51,47.24,1.52,11.37,18.19,14.4,22.74-8.72,24.63-14.4,11-40.93,9.1-55.14S458.75,883.91,458.75,883.91Z"/><path class="cls-37" d="M375.49,904.62s-9.75,13.64-2.53,21.22,23.39,11.62,34.25,5.31,20.53-29.94,22.36-38.78c2.13-10.3,3.91-26.77.57-29.24"/><path class="cls-38" d="M386.47,871.25s-27,51.94,3.69,53.83,35.73-53.83,35.73-53.83l-3.35-11.64Z"/><path class="cls-8" d="M376.32,899.83s23.37-4.94,41,4.35c0,0-8.88,21.76-25.8,21S374.74,911.47,376.32,899.83Z"/><path class="cls-8" d="M449.26,915.79s15.7-11.17,42.4,5.88c0,0-3,31-29.68,23.39S449.26,915.79,449.26,915.79Z"/></g><g id="手臂"><path class="cls-38" d="M481.75,600.59s19.15.2,23.81,28.65,18.07,32.76,26.59,58.58,19.35,68.9,29.41,88.26,14.33,54.19-5,47.61-31.75-70.58-61.75-80.39-123.52-30.75-123.52-30.75S365.73,706.4,369,694s-37.76,133.17-71.82,135.1c-20.54,0-28.26-3.1-25.94-17s50.32-157.85,65-180.39c12.39-19,15.71-24,32.25-21.3S481.75,600.59,481.75,600.59Z"/></g><g id="裤子-2" data-name="裤子"><path class="cls-22" d="M413.52,712.16s-48.63-14.44-58.73,10.57,4.51,39.45,1.37,58.56-8.82,56.26,6.33,71.42,27.29,25.38,48.13,19.32,15.27-12.42,15.27-12.42Z"/><path class="cls-22" d="M496.89,780.33a319.69,319.69,0,0,1,20.47,54.56C525.44,865,511.8,872,511.8,872s-16.67,11.88-45.08,11.88-50.67-13.14-47.89-30.57-1.51-24.51-6.82-48.76-10.61-27.29-9.35-63.92,26.53-33.6,26.53-33.6S530,722.47,558.54,821.76c0,0-6.57,28.55-36.89,31.58"/></g><path class="cls-38" d="M492.79,620.21s-22.71,46.45-23.35,67.61c9.93,14.45,18.19,24,18.19,26.58s-10.84-31.74-37.42-34.58l-21.12,9s-10.11,4.65-5.2,17.81,16,57.81,39.74,55.74,39-20.64,41-38.45c0,0,13.41-44.76.9-94.71"/><g id="头-2" data-name="头"><path class="cls-22" d="M368.52,619.2l113.23-18.61c13.48,2.31,20.59,15.49,21.62,21.42s12.39,33.55,12.39,33.55c23.22,42.33,26.06,63.49,26.06,63.49h12.39c9.29,0,16.52-2.33,14.45-13.94s5.94-3.1,15-9.29-4.35-12.64-4.35-12.64-36.17-23.75-59.39-54.46S495,581.37,480.15,545.37s-44.91-61.42-64.46-65-31.4-4.38-56.92,19.45-20,128.93-20,128.93,29.38,6.49,29.79-9.52"/><path class="cls-9" d="M355.65,560.5s-8.15,45.06,25.72,52,43.74-19.35,43.74-19.35,9.64-20.39,7.63-34.88"/><polyline class="cls-9" points="432.74 558.3 421.61 536.06 363.19 544.05 355.65 560.5"/><path class="cls-39" d="M482.75,583.46l-56.29-51.15L360,541s1.44,12.3-2.24,15.4,8.9,5.42,9.87,5.42,5-3.1,8.52-10.26,4.25,4.65,4.45,7.16,1.55,6.39,5.22,6.39,2.91-19.93,8.13-22.84.39,17,6.58,23.62a9.29,9.29,0,0,0,7.94,2.9c1.93-.39-2.13-21.29.77-27.68s8.52,19.16,7,21.68,1.74,6.41,5.23,6.11,6.38,1.7,6.19-8.4A127.88,127.88,0,0,0,425,539.18s18.33,11.42,22.2,55.16,11.22,78.77,19,83.42,9.29,10.06,9.29,10.06,6.77-31.16,11.61-42.77,2.32-47.62-3.49-61.36"/><path class="cls-13" d="M360.47,544.24s1,10.06-2.71,13.16,8.9,5.42,9.87,5.42,5-3.1,8.52-10.26,4.25,4.65,4.45,7.16,1.55,6.39,5.22,6.39,2.91-19.93,8.13-22.84.39,17,6.58,23.62a9.29,9.29,0,0,0,7.94,2.9c1.93-.39-2.13-21.29.77-27.68s8.52,19.16,7,21.68,1.74,6.41,5.23,6.11,6.38,1.7,6.19-8.4A127.88,127.88,0,0,0,425,540.18s18.33,11.42,22.2,55.16,11.22,78.77,19,83.42,9.29,10.06,9.29,10.06,6.77-31.16,11.61-42.77,2.32-47.62-3.49-61.36"/><path class="cls-32" d="M358.06,592.24s-.69,32.29,30.86,36.55,37.64-23,36.92-37.24c-6.29,10.35-12.92,24.1-36.53,22.15S360,599,358.06,592.24Z"/><path class="cls-9" d="M430,586.24s8.68,6.43,13.25-2.17-.85-21.18-8.28-14"/><path class="cls-13" d="M435.11,576.48s4.75-3.34,6.79-1"/><path class="cls-13" d="M435.23,581.09s4.59.59,4.06-6.25"/><line class="cls-13" x1="422.42" y1="611.63" x2="435.76" y2="588.5"/><circle class="cls-26" cx="399.52" cy="576.65" r="2.74"/><circle class="cls-26" cx="371.26" cy="573.91" r="2.74"/><path class="cls-40" d="M379.24,596.27c.58-2.42,7.65-6,15.39,2.71s-6.1,11.81-9.77,7.55S378.66,598.69,379.24,596.27Z"/></g><g id="果篮"><g id="果子"><circle class="cls-12" cx="335.93" cy="984.58" r="35.24"/><circle class="cls-12" cx="158.78" cy="883.62" r="27.63"/><circle class="cls-12" cx="205.26" cy="876.51" r="21.67"/><circle class="cls-12" cx="166.51" cy="941.88" r="36.53"/><path class="cls-13" d="M151.42,876.51s7.7,1.45,7.36,7.11c.79-3.56,6.28-8,10.64-7.61"/><path class="cls-13" d="M338.05,970s-2.27,6.38,2.47,8.38c-3-1.41-7.2,2.05-6.64,4.68"/><path class="cls-13" d="M158.78,931.65s7.93,1.26,4.39,10.73c2.08-5.36,9.76-9.34,11.46-5.36"/></g><path class="cls-41" d="M203,914.33s10.65,23.39,25.81,26.16,32.34,3.29,43.46,1.52,35.62-14.65,39.66-20.34a45.79,45.79,0,0,0,7.86-24.82c0-4.45,3.55-45.94-67.42-33.09C177.38,877.34,203,914.33,203,914.33Z"/><circle class="cls-12" cx="285.41" cy="887.16" r="21.19"/><path class="cls-13" d="M278.18,882.07s9.09-3,11,6.64c0,0-3.22-12.59,3.79-13.78"/><path class="cls-13" d="M283.29,876s2.85,2.46,0,4.74"/><circle class="cls-12" cx="239.53" cy="896.85" r="24.82"/><path class="cls-13" d="M230.05,887.16s6.92-2.77,8.2,3.46"/><path class="cls-42" d="M325.68,878.84c-3-18.8-35.06-29.36-71.68-23.57S190.11,881,193.08,899.79s35.07,29.36,71.68,23.57S328.65,897.65,325.68,878.84Zm-63.79,30.75c-29.29,4.63-54.69-2-56.72-14.88s20.08-27,49.37-31.64,54.69,2,56.72,14.88S291.19,905,261.89,909.59Z"/><circle class="cls-12" cx="248.15" cy="863.76" r="21.69" transform="translate(-649.52 906.82) rotate(-76.72)"/><path class="cls-13" d="M248.15,888s-15.63-2.84-8.62,11.18"/><path class="cls-13" d="M242.93,856.12s-8.14.37-7.76,4.92,7,7.2,7.76,7"/><path class="cls-13" d="M231.76,854.41s4-.2,3.6,5.2"/><circle class="cls-12" cx="360.44" cy="925.13" r="19.93"/></g><path id="手-2" data-name="手" class="cls-9" d="M279.38,849.83c-6.82,2.31-4.8,10.08,1,13.61s1.26,20.21-14.91,5.56,8.65-44.27,8.65-44.27a32.78,32.78,0,0,0,30.51,1.58c4.35,5.81,4.8,12.63,4.3,29.55-.08,1,.44,3.59-1.58,3.75-9-5.2-30-5.87-30-5.87"/><circle class="cls-12" cx="259.94" cy="970.03" r="33.02"/><path class="cls-13" d="M261.44,960.71s7.27,3.6,2.53,11.08c3-5,8.34-6.35,14.21-3.51"/><circle class="cls-12" cx="208.07" cy="983.09" r="30.88"/><path class="cls-13" d="M197,967s4.61,2.84,2.34,7.77c1.32-2.85,9.09-4.55,9.47,0"/><g id="手-3" data-name="手"><polygon class="cls-9" points="418.65 646.97 401.34 649.4 400.01 667.02 412.61 671.76 418.65 669.01 418.65 646.97"/><path class="cls-9" d="M425.89,658.05c3,4,0,8.59,0,8.59s5.32-3,8.6-.5,4,6.57-5.4,7.83c-12.74,1.77-13.29-1.52-16.32-15.16S428.93,649,428.93,649s9.35.5,11.06,9.09,11.06,21.88,11.06,21.88l-22,8.92s-4,2.7-4.45,3.69-17.43-3.41-20.21-10.49-16.38-50.78-16.38-50.78a6.23,6.23,0,0,1,3.92-8.59c6.65-2.52,8.67,6.56,8.67,6.56l5.81,20.48,2.28-30.83s-.51-6.59,6.82-5.19,4.91,6.51,4.91,6.51l-1.18,26.73s-18.39.69-16.36,8.18c.82,6.69-2.25,14.18,12.39,15.25"/><path class="cls-9" d="M400.64,663.86s-14.95-5.55-10.38,5.56,7.56,14.23,13.9,11.91S411.25,671.19,400.64,663.86Z"/></g></g></g></g></svg>