<svg xmlns="http://www.w3.org/2000/svg" viewBox="0 0 231.87 366.5"><defs><style>.cls-1{fill:#e15c3d;}.cls-1,.cls-2,.cls-3,.cls-4,.cls-5{stroke:#231815;stroke-linecap:round;stroke-linejoin:round;}.cls-1,.cls-3,.cls-4,.cls-5{stroke-width:3px;}.cls-2{fill:#63231a;stroke-width:3.3px;}.cls-3{fill:#ff9920;}.cls-4{fill:#2c774e;}.cls-5{fill:none;}</style></defs><title>橘子 (3)</title><g id="图层_2" data-name="图层 2"><g id="物件"><g id="橘子"><path class="cls-1" d="M193.35,248.88,176.51,348a1.09,1.09,0,0,1,0,.18c0,6.51-22.14,16.83-50.49,16.83-28.12,0-51.81-10.24-52.16-16.68L57,248.88"/><ellipse class="cls-1" cx="125.19" cy="248.88" rx="68.16" ry="23.56"/><ellipse class="cls-2" cx="126.03" cy="247.2" rx="53.85" ry="15.15"/><circle class="cls-3" cx="175.68" cy="29.27" r="14.3"/><circle class="cls-3" cx="33.48" cy="171.47" r="15.15"/><circle class="cls-3" cx="219.43" cy="98.27" r="10.94"/><path class="cls-4" d="M182.71,126a21,21,0,0,0,20.74-21,20.65,20.65,0,0,0-.15-2.37A23.54,23.54,0,1,0,183.58,60a22.79,22.79,0,0,0-7-7.5,36.8,36.8,0,0,0,1.57-10.63c0-22.31-20-40.39-44.59-40.39S89,19.58,89,41.89c0,.29,0,.57,0,.86A20.91,20.91,0,0,0,67.43,49a32.79,32.79,0,0,0-39.88,51.82,22.68,22.68,0,0,0,3.12,18.63,26.92,26.92,0,1,0,11.7,49.83,16.72,16.72,0,0,0,10.28,19.6,22.7,22.7,0,1,0,44.7,6.8,20.07,20.07,0,0,0,10.17,2.77,19.45,19.45,0,0,0,3.43-.32c0,.39-.06.77-.06,1.16a17.66,17.66,0,0,0,33.79,7.21,31.92,31.92,0,0,0,49.08-11.53c.7.05,1.4.11,2.11.11A34.5,34.5,0,1,0,183,128.5Z"/><path class="cls-5" d="M107.52,248.88s16.83-3.36,21.88,6.73"/><path class="cls-5" d="M146.23,247.2s-15.15-4.61-20.2,4.42"/><polyline class="cls-5" points="120.98 247.2 122.67 216.91 131.92 216.58 134.45 245.52"/><circle class="cls-3" cx="99.95" cy="145.39" r="15.99"/><circle class="cls-3" cx="163.06" cy="131.08" r="13.46"/><circle class="cls-3" cx="127.72" cy="70.5" r="13.46"/><circle class="cls-3" cx="54.51" cy="91.53" r="17.67"/><circle class="cls-3" cx="198.4" cy="171.47" r="13.46"/></g></g></g></svg>